<svg id="Layer_1" data-name="Layer 1" xmlns="http://www.w3.org/2000/svg" viewBox="0 0 271.21 67.66"><defs><style>.cls-1{fill:#231f20;}.cls-2{fill:none;stroke:#231f20;stroke-miterlimit:10;stroke-width:4px;}</style></defs><title>albumArrow</title><path d="M10.63,75.49a10.56,10.56,0,0,1,2.29-.37,5.39,5.39,0,0,1,1.92.25,18.14,18.14,0,0,1,1.46,1.14,8.1,8.1,0,0,1,1.28,1.4,7.54,7.54,0,0,1,.9,1.68,5.28,5.28,0,0,1,.33,2,6.79,6.79,0,0,1-1.31,2.36,13.39,13.39,0,0,1-2.07,2c-.78.6-1.61,1.19-2.48,1.75L10.42,89.3c.19.41.37.85.55,1.31a9.15,9.15,0,0,1,.43,1.44,8.32,8.32,0,0,1,.19,1.49A5.08,5.08,0,0,1,11.42,95a4.5,4.5,0,0,0-.9.51c-.29.22-.56.4-.79.56L9.31,96a1,1,0,0,0-.47,0,.8.8,0,0,0-.37-.5l-.62-.42a2,2,0,0,1-.49-.47c-.12-.16-.11-.36,0-.62a.7.7,0,0,1-.39-.4,4.25,4.25,0,0,0,0-1,11.47,11.47,0,0,0-.22-1.22,3.88,3.88,0,0,0-.38-1,.91.91,0,0,0-.83-.45s0-.08.09-.1l.15-.1a.75.75,0,0,1-.46-.35,1.16,1.16,0,0,0-.42-.43,1.23,1.23,0,0,0,0-.28c0-.07,0-.13.16-.16a2.48,2.48,0,0,1-.37-.92,3.75,3.75,0,0,1-.06-.94,4.73,4.73,0,0,1,.14-1c.08-.32.14-.65.2-1,.12-.07.21-.08.26,0s.11,0,.17-.1a1.61,1.61,0,0,0,.25-.77,1.75,1.75,0,0,0-.14-.73,12.05,12.05,0,0,1,0-1.35,8.85,8.85,0,0,1,.16-1.31A5.51,5.51,0,0,1,6,79.22a3,3,0,0,1,.61-.91,3.92,3.92,0,0,1,.62-.84,5.69,5.69,0,0,1,.94-.79,6.46,6.46,0,0,1,1.13-.61,4.32,4.32,0,0,1,1.15-.32c.11,0,.15,0,.13-.11S10.58,75.51,10.63,75.49Zm1.55,6.94a9,9,0,0,1,1.28-1.07,3,3,0,0,0,1-1.19A3.15,3.15,0,0,0,13.32,80a5.53,5.53,0,0,0-1.51.27,5.36,5.36,0,0,0-1.46.72,3.23,3.23,0,0,0-1,1.2c0,.37,0,.66,0,.88s0,.49,0,.82a.46.46,0,0,0,.27.13.41.41,0,0,1,.26.13A3.53,3.53,0,0,1,11,83.29,4.14,4.14,0,0,0,12.18,82.43Z" transform="translate(-4.6 -28.41)"/><path d="M35.06,82.56a2.43,2.43,0,0,1,.27,1.24,2.38,2.38,0,0,1-.31,1,2.94,2.94,0,0,1-.69.85q-.42.39-.84.72a5.29,5.29,0,0,1-.54-.13,2.05,2.05,0,0,0-.57-.05q-.62-.52-1.14-.9a2,2,0,0,1-.75-1s0-.12-.08-.32-.08-.4-.12-.64-.08-.46-.12-.66-.08-.31-.08-.33a6.33,6.33,0,0,0-1.23.78,11.27,11.27,0,0,0-1.15,1c-.36.36-.69.72-1,1.06s-.54.64-.72.88a1.58,1.58,0,0,1,0,.44,6.65,6.65,0,0,1,0,.76,4.2,4.2,0,0,1-.12.75.53.53,0,0,1-.28.42.64.64,0,0,0,.15.13.25.25,0,0,1,.09.22,3.1,3.1,0,0,0-.58.56,5.29,5.29,0,0,1-.52.54,2.2,2.2,0,0,1-.66.4,2.3,2.3,0,0,1-1,.08.38.38,0,0,0-.25-.23,2.72,2.72,0,0,0-.38-.11L22.13,90c-.09,0-.15,0-.16-.08s-.15,0-.19-.15,0-.22.18-.19a1.94,1.94,0,0,1-.63-.53,3.86,3.86,0,0,0-.61-.6.47.47,0,0,0,0-.22c0-.1,0-.2,0-.28a.39.39,0,0,1,0-.19s.07-.06.15,0a.76.76,0,0,1-.16-.41c0-.12,0-.23,0-.34a1.45,1.45,0,0,0,0-.3.42.42,0,0,0-.2-.27,3.41,3.41,0,0,0,.06-1.52,9.57,9.57,0,0,0-.33-1.33,1.88,1.88,0,0,0,.12-.68,4.46,4.46,0,0,0,0-.82,2.81,2.81,0,0,0-.21-.73,1.87,1.87,0,0,0-.32-.52c0-.1.07-.17.27-.2a17.15,17.15,0,0,0-.58-2.12,21.29,21.29,0,0,1-.63-2.25,6.78,6.78,0,0,1-.17-2,2.06,2.06,0,0,1,.86-1.51,4.17,4.17,0,0,0,.84.84,9.78,9.78,0,0,0,.92.61l1,.55a7.36,7.36,0,0,1,1,.7c.12.35.24.77.36,1.24s.24,1,.35,1.47.2,1,.28,1.47.16.87.21,1.21a.22.22,0,0,0,.22.1c.09,0,.14.06.14.23.4-.28.82-.56,1.27-.83l1.34-.85q.66-.44,1.26-.9a7.39,7.39,0,0,0,1.08-1c-.18-.74-.34-1.5-.46-2.27a6.62,6.62,0,0,0-.8-2.21.7.7,0,0,0,.12-.35.45.45,0,0,1,.2-.33A3.91,3.91,0,0,1,28,70.15a2.46,2.46,0,0,1,.19-1.09,1.69,1.69,0,0,1,.67-.8,5.78,5.78,0,0,1,.91.74c.28.29.57.57.86.84s.59.54.88.78a3.08,3.08,0,0,0,1,.52c.26.51.51,1,.76,1.6s.49,1.12.73,1.7c.12.75.21,1.48.28,2.2a13.12,13.12,0,0,0,.41,2.21,1.53,1.53,0,0,0-.12.6c0,.21,0,.43,0,.65a4.48,4.48,0,0,1,0,.64,1.85,1.85,0,0,1-.16.58,1.18,1.18,0,0,1,.28.6A1,1,0,0,0,35.06,82.56Z" transform="translate(-4.6 -28.41)"/><path d="M51.8,70.3a2,2,0,0,0,.28.61,5.52,5.52,0,0,0,.43.53A5.47,5.47,0,0,1,53,72a4,4,0,0,1,.39.55,3.32,3.32,0,0,1,.3.84,5.25,5.25,0,0,1,.12,1,3.71,3.71,0,0,1-.1.9,1.49,1.49,0,0,1-.35.7,2.93,2.93,0,0,1-.69,1.1,6.12,6.12,0,0,0-.81,1,2.24,2.24,0,0,1-.59.51l-.72.43a6.77,6.77,0,0,1-.6.6c-.24.22-.49.43-.76.64a5.46,5.46,0,0,1-.82.53,3.62,3.62,0,0,1-.77.32,8.3,8.3,0,0,1-1.49,1,6.48,6.48,0,0,1-1.91.54,5.21,5.21,0,0,1-1.89.58A4.73,4.73,0,0,1,40.5,83a5.5,5.5,0,0,1-1.57-.74,7.24,7.24,0,0,1-1.33-1.12,7.75,7.75,0,0,1-1-2.89,9.79,9.79,0,0,1,.08-2.71A13.3,13.3,0,0,1,37.41,73c.32-.81.62-1.6.91-2.37a.32.32,0,0,0,.26-.11.89.89,0,0,0,.12-.26,1.71,1.71,0,0,1,.09-.3.41.41,0,0,1,.19-.22,1.42,1.42,0,0,1,.35-.83,1.7,1.7,0,0,0,.39-.81,1.14,1.14,0,0,0,.36-.32,2.25,2.25,0,0,0,.24-.36c.07-.13.15-.25.23-.38a1.12,1.12,0,0,1,.33-.32l-.11-.3a2.16,2.16,0,0,0,.56-.78c.09-.25.2-.55.32-.9l.41-.18a2.89,2.89,0,0,0,.45-.22,3.24,3.24,0,0,1,.2-.72,3,3,0,0,1,.4-.61A3.05,3.05,0,0,0,44,63a1.36,1.36,0,0,1,.86.1.81.81,0,0,0,.33.37,2.61,2.61,0,0,0,.42.16l.42.15a.81.81,0,0,1,.36.31c.08,0,.13,0,.15-.08s.06-.07.15-.08a1.25,1.25,0,0,0,.39.44,1.62,1.62,0,0,1,.4.4,2.75,2.75,0,0,0,0,.64.61.61,0,0,1-.2.55c0,.14.09.19.19.17a.2.2,0,0,1,.23.09.47.47,0,0,1,.05.39,19.79,19.79,0,0,1,2,1.86A22.35,22.35,0,0,0,51.8,70.3Zm-2.61,3.84a1.4,1.4,0,0,1,.12-.6,1,1,0,0,0,0-.65,1.39,1.39,0,0,1-.3-.29,1.5,1.5,0,0,1-.17-.39,11,11,0,0,1-1.75-1.46,14.64,14.64,0,0,0-1.7-1.48.64.64,0,0,1-.12.29q-.09.16-.33.06a.5.5,0,0,1-.36.58,1.61,1.61,0,0,1-.39,0,1.23,1.23,0,0,1-.39-.07c-.4.62-.79,1.23-1.19,1.82a8.45,8.45,0,0,0-.95,1.93c-.06.06-.1.1-.13.09s-.07,0-.15.1a4.69,4.69,0,0,1-.2,1.15c-.11.36-.21.73-.31,1.09a6.2,6.2,0,0,0-.19,1.13,3.6,3.6,0,0,0,.18,1.25,2.38,2.38,0,0,0,1.3.06,6.82,6.82,0,0,0,1.34-.45c.45-.2.88-.42,1.29-.65A6.58,6.58,0,0,1,46,77.13a8.54,8.54,0,0,0,1.76-1.44C48.2,75.19,48.68,74.67,49.19,74.14Z" transform="translate(-4.6 -28.41)"/><path d="M66.69,59.8a13,13,0,0,0-1.53.6c-.54.24-1.07.49-1.58.74s-.72.34-1.07.49-.65.29-.94.4c0,.45,0,.86,0,1.21s-.07.71-.12,1.06-.07.73-.08,1.1,0,.75,0,1.15a9.26,9.26,0,0,0-.19,1,4.18,4.18,0,0,0,0,.94,3.26,3.26,0,0,0-.21,1,7.89,7.89,0,0,0,0,.88v.37a.65.65,0,0,0-.11.33.46.46,0,0,1-.08.23,1.67,1.67,0,0,1,0,.67,1.19,1.19,0,0,0,0,.49c.06.18.06.32,0,.4a.77.77,0,0,1,.1.29c0,.11,0,.22,0,.31a1.52,1.52,0,0,0,.13.55l.22.14a.55.55,0,0,1,.18.19,1.27,1.27,0,0,0,.3.06,3.72,3.72,0,0,0,.41.08l.35.19a1.56,1.56,0,0,1,.18,1.36,1.82,1.82,0,0,1-1.26,1l-.34.11a.89.89,0,0,1-.25-.16l-.42,0a.66.66,0,0,1-.33-.14l-.69-.08-.3,0c-.07-.2-.11-.32-.12-.33a2.14,2.14,0,0,1-.49-.46,4.83,4.83,0,0,1-.36-.56q-.15-.23-.3-.42a1.44,1.44,0,0,0-.32-.33,8.24,8.24,0,0,1-.63-2.82c0-.82,0-1.62,0-2.39L57,68.13a11.56,11.56,0,0,0,0-1.31l.16-.36c0-.34.06-.62.07-.84s0-.45.07-.69,0-.29,0-.43,0-.25,0-.36l-.31.12-.27.14-.31.14a1.36,1.36,0,0,1-.28.11.89.89,0,0,1-.29.07,1.85,1.85,0,0,1-.64.37l-.29.1-.16,0a.29.29,0,0,0-.14,0,1.15,1.15,0,0,0-.43.23l-.66.22-.28.1-.14.06-.14.06a2.57,2.57,0,0,1-.44.11A1.79,1.79,0,0,1,52,66a1.68,1.68,0,0,0-.62-.31L51,65.47a2.11,2.11,0,0,0-.2-.29,2.79,2.79,0,0,1-.24-.31,5.66,5.66,0,0,1-.43-.52,2.62,2.62,0,0,1-.38-.73.66.66,0,0,1,0-.37c0-.09,0-.17.07-.24l-.07-.44.39-.1.8-.27c.62-.21,1.23-.45,1.85-.7l1.91-.81,1.13-.5L57,59.67c0-.19,0-.37.07-.55l.24-.23a1.34,1.34,0,0,1,.78-.12,4.87,4.87,0,0,1,.47.17l1.24-.54c.42-.19.84-.39,1.26-.61.62-.31,1.26-.6,1.9-.89a18,18,0,0,1,1.9-.73c.27-.09.53-.16.79-.22s.5-.11.73-.14l.36.1a1.12,1.12,0,0,0,.35.23l.43.17a6.88,6.88,0,0,1,1,.51A1.65,1.65,0,0,1,69.11,58a1.27,1.27,0,0,1-.21.5l-.15.41-.3.07a1,1,0,0,0-.31.14l-.25.19-.2.17-.24.15a2.86,2.86,0,0,1-.42.12Z" transform="translate(-4.6 -28.41)"/><path d="M82.14,60.62a2,2,0,0,0,.26.63,5.34,5.34,0,0,0,.41.53c.15.17.3.35.44.53a4,4,0,0,1,.37.57,3.39,3.39,0,0,1,.27.85,4.45,4.45,0,0,1,.08,1,3.19,3.19,0,0,1-.12.89,1.56,1.56,0,0,1-.39.69,2.92,2.92,0,0,1-.73,1.07,5.36,5.36,0,0,0-.86,1,2.2,2.2,0,0,1-.62.5c-.24.13-.48.27-.74.4a7.58,7.58,0,0,1-.63.58c-.25.21-.51.41-.79.61a6,6,0,0,1-.84.5,3.69,3.69,0,0,1-.79.29,8.09,8.09,0,0,1-1.55.92,6.2,6.2,0,0,1-2,.47,5,5,0,0,1-1.93.51,4.77,4.77,0,0,1-1.78-.22,5.77,5.77,0,0,1-1.56-.8,6.86,6.86,0,0,1-1.29-1.17A7.56,7.56,0,0,1,66.54,68a9.36,9.36,0,0,1,.18-2.71,13.32,13.32,0,0,1,.79-2.51c.35-.8.69-1.57,1-2.33a.37.37,0,0,0,.27-.1.89.89,0,0,0,.12-.26,1.45,1.45,0,0,1,.11-.29.43.43,0,0,1,.2-.22,1.4,1.4,0,0,1,.38-.81A1.52,1.52,0,0,0,70,58a1.2,1.2,0,0,0,.38-.3,1.78,1.78,0,0,0,.25-.36c.08-.12.16-.25.25-.36a1.06,1.06,0,0,1,.35-.31l-.11-.31a2.14,2.14,0,0,0,.6-.75l.36-.9a4.15,4.15,0,0,1,.42-.16,2.89,2.89,0,0,0,.46-.2,3.6,3.6,0,0,1,.23-.72,2.85,2.85,0,0,1,.43-.59,3,3,0,0,0,.85,0,1.39,1.39,0,0,1,.87.13.77.77,0,0,0,.32.38,2.65,2.65,0,0,0,.42.18,3.69,3.69,0,0,1,.42.17.72.72,0,0,1,.35.32c.09,0,.14,0,.15-.08a.16.16,0,0,1,.15-.07,1.31,1.31,0,0,0,.38.45,1.34,1.34,0,0,1,.39.42,3.47,3.47,0,0,0,0,.64.63.63,0,0,1-.22.54c0,.14.08.2.19.18a.18.18,0,0,1,.22.1.4.4,0,0,1,0,.39,18.26,18.26,0,0,1,2,1.93A20.18,20.18,0,0,0,82.14,60.62Zm-2.78,3.75a1.56,1.56,0,0,1,.14-.6.88.88,0,0,0,0-.65,1.54,1.54,0,0,1-.29-.3,3,3,0,0,1-.16-.39,12.32,12.32,0,0,1-1.71-1.53,14,14,0,0,0-1.65-1.54.81.81,0,0,1-.13.29.24.24,0,0,1-.34,0,.51.51,0,0,1-.1.38.48.48,0,0,1-.29.19,1.64,1.64,0,0,1-.39,0,1.1,1.1,0,0,1-.4-.08c-.42.61-.84,1.2-1.26,1.78a7.87,7.87,0,0,0-1,1.89c-.07.06-.11.09-.13.09s-.08,0-.16.09a4.72,4.72,0,0,1-.25,1.14c-.12.36-.24.72-.35,1.08a6.19,6.19,0,0,0-.23,1.12,3.09,3.09,0,0,0,.13,1.25,2.41,2.41,0,0,0,1.31.12,8.14,8.14,0,0,0,1.37-.4c.46-.19.9-.39,1.32-.61A7.11,7.11,0,0,1,76,67.23a8.72,8.72,0,0,0,1.84-1.37C78.32,65.37,78.83,64.88,79.36,64.37Z" transform="translate(-4.6 -28.41)"/><path d="M112.37,58.82a4.82,4.82,0,0,1-.24,1.11,4.23,4.23,0,0,1-.55,1.08,4.7,4.7,0,0,1-.83.9,3.25,3.25,0,0,1-1.1.59,1.36,1.36,0,0,1-.56,0l-.33-.11-.19-.05-.16,0-.39,0v-.4a.4.4,0,0,0-.13-.34,2,2,0,0,0-.45-.26l-.22-.12-.2-.14c-.22-.13-.44-.26-.65-.4l.73-.41a1.93,1.93,0,0,0,.84-.77,1.51,1.51,0,0,0-.11-1.09,2.58,2.58,0,0,0-1,.23c-.25.13-.5.26-.75.41s-.67.37-1,.53a7.43,7.43,0,0,1-1.16.42l-.44.1L103,60l-.31,0c-.1-.2-.17-.3-.22-.32l-.15-.07a2.47,2.47,0,0,1-.42-.29.83.83,0,0,1-.25-.59,1.57,1.57,0,0,1-.33-.46,3.41,3.41,0,0,0,0,.78l0,.31-.28.14a.17.17,0,0,0,0,.15.37.37,0,0,0,0,.16v.52l-.09.13-.09.13a3.35,3.35,0,0,1,0,.55c0,.18,0,.36,0,.53s0,.53,0,.78a1.83,1.83,0,0,0,.13.71l0,.34a1.13,1.13,0,0,1-.24.36,4,4,0,0,1-.3.28.34.34,0,0,1-.13.14l-.14.12v.33l-.34.15-.42.21a1.44,1.44,0,0,1-.3.12l-.3,0L98,65.05a3.25,3.25,0,0,0-.5-.18,1.46,1.46,0,0,1-.44-.43c-.06-.11-.11-.2-.15-.29a1.14,1.14,0,0,1-.16-.26.25.25,0,0,0-.13-.15l-.48-.23.25-.35-.12-.48c.1-1.07.24-2.1.41-3.11s.36-2,.55-3.08c.07-.34.13-.68.19-1s.11-.69.18-1a.67.67,0,0,1-.09-.19.74.74,0,0,1,0-.27c.12-.38.22-.71.28-1s.12-.59.17-.89.14-.72.21-1.06a7.12,7.12,0,0,1,.36-1.11L99,49.6l.19-.13a.83.83,0,0,1,.25-.12l.47-.06A4.36,4.36,0,0,0,101,47.87a13.39,13.39,0,0,0,.8-1.94l.18-.47.46.12a1.54,1.54,0,0,0,.46,0h.62c.38,0,.74,0,1.09,0a2.21,2.21,0,0,1,.9.22,3,3,0,0,1,.41.63,4.23,4.23,0,0,0,.22.42c.16.31.31.61.45.92s.28.66.42,1.05.37.59.53.88.31.59.47.89.45.84.68,1.24a7.78,7.78,0,0,0,.73,1.1,1,1,0,0,1,.3-.05,1.64,1.64,0,0,1,.29-.16l.35-.16.32-.11.2.25a.58.58,0,0,0,.38.21,1.21,1.21,0,0,1,.61,0,2.46,2.46,0,0,1,.4.19.91.91,0,0,0,.29.1l.49.06-.12.49a4,4,0,0,1-.56,1.19,5.47,5.47,0,0,1-1,1.09l.14.32a1.1,1.1,0,0,0,.16.3c.15.31.29.63.43,1a5.8,5.8,0,0,1,.3,1Zm-9.93-2.64c.57-.2,1.1-.38,1.57-.56s1-.4,1.54-.67l-1-1.64c-.33-.57-.68-1.13-1-1.69l-.09.33a11.66,11.66,0,0,0-.75,1.63,16.68,16.68,0,0,0-.52,1.63c-.07.2-.14.41-.2.61s-.13.4-.18.59l.33-.12A1.63,1.63,0,0,0,102.44,56.18Z" transform="translate(-4.6 -28.41)"/><path d="M122.69,58.44c-.51.31-1.06.62-1.67,1a7.36,7.36,0,0,1-1.88.74,3.67,3.67,0,0,1-2.52-.12,1.92,1.92,0,0,0-.39-.36l-.23-.2a1.18,1.18,0,0,1-.2-.33,3.11,3.11,0,0,1-.81-.77,4.63,4.63,0,0,1-.58-1,5.13,5.13,0,0,1-.35-1.11,6.25,6.25,0,0,1-.11-1.12.71.71,0,0,0,0-.25,2.13,2.13,0,0,1,0-.27c0-.32,0-.63,0-.94a2.45,2.45,0,0,1,.16-.83.76.76,0,0,1-.16-.56,4.06,4.06,0,0,1,.11-.64c.08-.79.14-1.45.18-2s.11-1.09.17-1.63c.09-.94.17-1.86.24-2.77a27.39,27.39,0,0,0,0-2.89L115,42l.27-.16c.41.08.88.14,1.41.19a4.12,4.12,0,0,0,1.27-.06,1.13,1.13,0,0,1,.36.14l.16.1a5.4,5.4,0,0,1,.78.61,1.52,1.52,0,0,1,.43,1c-.07.2-.14.3-.2.32a8.13,8.13,0,0,1,0,1c0,.29-.08.58-.13.88s-.11.63-.15.94a6,6,0,0,0,0,1.13,1,1,0,0,0-.09.29c0,.09,0,.18,0,.28s0,.22-.05.34a.72.72,0,0,1-.15.32,4.29,4.29,0,0,1,0,1.26l-.15,1c-.09.61-.15,1.21-.19,1.8a7.65,7.65,0,0,0,.18,2,.64.64,0,0,1,.26-.13l.26-.06a2.36,2.36,0,0,1,.64-.07,5.14,5.14,0,0,1,1.8-1c.69-.23,1.38-.44,2.07-.62l.83-.2a4.52,4.52,0,0,0,.76-.25,1.79,1.79,0,0,0,.39.08l.23,0a1.8,1.8,0,0,1,.36-.06,2.85,2.85,0,0,0,.81.29,5.9,5.9,0,0,0,.75.1c.24,0,.48,0,.71.09a2.43,2.43,0,0,1,.7.21c.18.39.36.78.53,1.17q.28.21.27.3a.45.45,0,0,1,0,.37l.14.3a1.89,1.89,0,0,0-.56.34,3.43,3.43,0,0,0-.24.33,2.05,2.05,0,0,1-.34.11l-.19,0a4.08,4.08,0,0,0-1,.38,5.61,5.61,0,0,0-1.73.14c-.22,0-.45.12-.68.19l-.69.23c-.23.1-.47.18-.71.26s-.49.15-.75.21Z" transform="translate(-4.6 -28.41)"/><path d="M145.82,48.57a.36.36,0,0,1,.28.24,1,1,0,0,1,.08.32c-.26.51-.43.87-.53,1.07s-.17.35-.21.45a1.26,1.26,0,0,1-.14.26l-.38.47a25.62,25.62,0,0,1-2.44,2,12.07,12.07,0,0,1-2.77,1.48,1.48,1.48,0,0,1-.8.65l-1.18.52a.23.23,0,0,1-.18-.13.21.21,0,0,0-.17-.12.29.29,0,0,1-.19.36,1.52,1.52,0,0,1-.61,0,4.6,4.6,0,0,1-.81-.18l-.73-.23c-.07.17-.13.34-.2.52a.88.88,0,0,1-.32.41l-.52,0a.32.32,0,0,0-.28.18,1,1,0,0,1-.34-.13l-.26-.17-.28-.13a1.48,1.48,0,0,0-.41-.06c0-.08,0-.2-.15-.34a.56.56,0,0,0-.44-.21c0-.15,0-.31-.23-.48a2.27,2.27,0,0,1-.52-.59A4.63,4.63,0,0,0,131,54a.42.42,0,0,1,.25-.51,1.07,1.07,0,0,0-.18-.32l-.19-.26a1,1,0,0,0,.19-.48,4.7,4.7,0,0,0,0-.53,5,5,0,0,1,0-.55.87.87,0,0,1,.22-.5c0-.62.06-1.07.09-1.37a5,5,0,0,0,0-.86c0-.28,0-.58,0-.9a8.4,8.4,0,0,1,.08-1.22,1.84,1.84,0,0,1-.11-.78c0-.23.05-.47.08-.71a6,6,0,0,0,0-.74,1.82,1.82,0,0,0-.25-.83.77.77,0,0,0-.54.41,1.53,1.53,0,0,0-.07.7.75.75,0,0,1-.53.34,2,2,0,0,0-.6.22,4.93,4.93,0,0,1-2.05-.73A6.49,6.49,0,0,1,125.85,43a2.82,2.82,0,0,1,.52-1.29,5.35,5.35,0,0,1,1-1,8.64,8.64,0,0,1,1.36-.83l1.42-.7c.75-.32,1.5-.65,2.25-1a9,9,0,0,1,2.51-.74.93.93,0,0,1,.41-.2l.53-.14.53-.13a1.17,1.17,0,0,0,.42-.2.74.74,0,0,0,.5.12,1.7,1.7,0,0,1,.69.13.59.59,0,0,1,.6-.25,3.93,3.93,0,0,1,.55.21c.17.09.34.16.5.23a.76.76,0,0,0,.44,0,3.44,3.44,0,0,0,.66.37c.25.11.5.22.73.34a2.81,2.81,0,0,1,.62.42,1.19,1.19,0,0,1,.37.62c0,.1.05.15.13.15a.33.33,0,0,1,.21.07,3.27,3.27,0,0,1,.1,1.59,5.81,5.81,0,0,1-.49,1.36,9.63,9.63,0,0,1-.78,1.25,9,9,0,0,0-.75,1.25,3.87,3.87,0,0,0,.86.5l.94.4a9.9,9.9,0,0,1,.93.44,2.85,2.85,0,0,1,.78.61.75.75,0,0,0,.18.07l.21.06a3.49,3.49,0,0,0,.38.53c.15.18.28.35.4.52a2.37,2.37,0,0,1,.25.46A.37.37,0,0,1,145.82,48.57Zm-7.72-8.39a12.78,12.78,0,0,0-3,1,8.8,8.8,0,0,0-2.33,1.46,11.82,11.82,0,0,0,1.23.47,2.43,2.43,0,0,1,1.06.67,8.49,8.49,0,0,0,1.79-1.62A11.91,11.91,0,0,0,138.1,40.18Zm2.7,9a.87.87,0,0,1,.22-.53c.13-.15.26-.29.4-.43a3.37,3.37,0,0,0,.34-.43.7.7,0,0,0,0-.57,6.12,6.12,0,0,0-1.91-.2,6.3,6.3,0,0,0-1.51.34,8.83,8.83,0,0,0-1.28.6,8.11,8.11,0,0,1-1.23.58c-.08.6-.16,1.25-.23,1.95s-.15,1.38-.21,2a9.41,9.41,0,0,0,1.56-.73c.46-.28.9-.56,1.32-.85l1.23-.9Q140.11,49.62,140.8,49.2Z" transform="translate(-4.6 -28.41)"/><path d="M161.61,33.21a5.15,5.15,0,0,0,.47,1c.17.28.35.56.54.82l.47.74a4.35,4.35,0,0,1,.42.89,9,9,0,0,0,0,1.45c0,.43.05.89.07,1.36-.17.74-.36,1.39-.55,2s-.33,1.08-.42,1.49a1.93,1.93,0,0,0-.19.38c0,.14-.09.29-.14.44a1.54,1.54,0,0,0-.09.28,1.07,1.07,0,0,1-.1.26l-.66-.08c0,.25,0,.49,0,.74l-.4.2-.22.4a8.66,8.66,0,0,1-.86,1.83,7.54,7.54,0,0,1-1.18,1.43,12.14,12.14,0,0,1-1.6,1.29l-2.06,1.4c-.35,0-.65.07-.91.11s-.49.08-.72.1-.86.15-1.43.21a.58.58,0,0,0-.35-.26.85.85,0,0,0-.35,0,1.71,1.71,0,0,1-.93-.51c-.24-.26-.48-.55-.72-.86s-.3-.36-.44-.52-.3-.33-.47-.49l.48-.25-.83-.55-.19-.13a.62.62,0,0,1-.19-.12l-.14-.45c-.38-1.31-.7-2.51-1-3.61a9.22,9.22,0,0,1-.25-3l-.08-.31c0-.43-.06-.79-.07-1.08s0-.57,0-.82a6.37,6.37,0,0,1,0-1.23,1.1,1.1,0,0,0,.56-.46c.1-.2.19-.37.26-.52a.84.84,0,0,1,.61,0,2,2,0,0,1,.42.39c.14.15.32.32.52.5a1.54,1.54,0,0,0,.81.34,3.59,3.59,0,0,0,.28.44l.36.48a11.21,11.21,0,0,1,.69.93,3.75,3.75,0,0,1,.47,1,5.14,5.14,0,0,0-.17,1.35,9.17,9.17,0,0,0,.14,1.49,8.43,8.43,0,0,0,.37,1.4,4.53,4.53,0,0,0,.52,1.08l.27.34.5-.17a14.46,14.46,0,0,0,1.54-.83,8,8,0,0,0,2.25-2c.3-.41.62-.88.95-1.4a7.1,7.1,0,0,0,.76-1.73,11.07,11.07,0,0,0,.39-1.92,12.31,12.31,0,0,0,.06-1.91,15.46,15.46,0,0,0-.17-1.76.64.64,0,0,0,.36-.78l-.13-.31a.38.38,0,0,1-.1-.4,1.4,1.4,0,0,1,.67-1,5.73,5.73,0,0,1,1,.46C161,32.83,161.33,33,161.61,33.21Z" transform="translate(-4.6 -28.41)"/><path d="M186.6,45.29l-.51.36a1.59,1.59,0,0,1-.58.21,3.62,3.62,0,0,1-1.83-2.71,17.81,17.81,0,0,1-.13-5.44.36.36,0,0,0,.08-.38l-.33-.24a.78.78,0,0,0-.23.07c-.07,0-.11.11-.13.23-.46.45-1,.93-1.53,1.43a20.68,20.68,0,0,1-1.76,1.43,13.77,13.77,0,0,1-1.92,1.18,7,7,0,0,1-2,.67,4.39,4.39,0,0,1-4.39-1.76L171,40l-.17.42a3.88,3.88,0,0,0-.17.52c-.07.27-.13.56-.19.89a8.36,8.36,0,0,0-.12,1,2.37,2.37,0,0,0,.07.84c-.14.21-.29.45-.45.71a2.43,2.43,0,0,0-.29.86.6.6,0,0,0,.16.43.68.68,0,0,1-.19.45,3.45,3.45,0,0,1-.2.32,1.59,1.59,0,0,0-.17.31,1.09,1.09,0,0,0,0,.31,2.71,2.71,0,0,1,0,.29,1,1,0,0,1,0,.39,5.52,5.52,0,0,1-.53,1.46,1.08,1.08,0,0,1-.76.45,5.84,5.84,0,0,1-.81.06,4,4,0,0,1-.95-1,7.62,7.62,0,0,1-.82-1.42,8.31,8.31,0,0,1-.52-1.6,3.48,3.48,0,0,1,0-1.47,4.64,4.64,0,0,1,.11-.63c.08-.39.19-.9.32-1.52s.27-1.31.44-2.08.34-1.5.52-2.22.36-1.39.53-2a13.09,13.09,0,0,1,.47-1.4c.12-.26.22-.51.31-.73l.25-.66a11.32,11.32,0,0,1,.74-1.68,3.29,3.29,0,0,1,1.29-1.2,2.73,2.73,0,0,1,1.13.42l.13.31a.43.43,0,0,0,.44.22l.61.06.54,0a3.74,3.74,0,0,1,.52.47l.63.6a3.19,3.19,0,0,1,.52.6,2,2,0,0,1,.3.65,1.66,1.66,0,0,1,0,.74l.09.28a1.11,1.11,0,0,1,.22.71,3.41,3.41,0,0,0,.06.43,2,2,0,0,0,.16.46,1.68,1.68,0,0,0,1.94-.14c.25-.19.48-.38.7-.58a5.22,5.22,0,0,1,.43-.39,1.56,1.56,0,0,1,.46-.24c.3-.39.58-.74.83-1s.51-.6.79-.9a21.45,21.45,0,0,0,1.48-1.8,5.72,5.72,0,0,0,1-2.26,1.27,1.27,0,0,1,.62-.27,2.12,2.12,0,0,1,.75,0l.78.18.19.06.16,0a.65.65,0,0,0,.35.45l.18.09a.46.46,0,0,0,.1.05,1.36,1.36,0,0,1,.69.36,2,2,0,0,0,1,.89,1.12,1.12,0,0,0,.12.53,4.32,4.32,0,0,0,.31.48l.09.16a1.82,1.82,0,0,0,.14.19l-.6,0c.06.17.13.35.2.53a2,2,0,0,1,.1.91,2.52,2.52,0,0,1-.17.83c.12.5.22.89.29,1.16a4.82,4.82,0,0,1,.11.79,5.33,5.33,0,0,1,0,.71,5,5,0,0,1-.16.74,8,8,0,0,1,.22,3.44c-.18,1.07-.39,2.08-.62,3,0,.1,0,.2-.08.31a1.57,1.57,0,0,0-.08.31A3.77,3.77,0,0,0,187,45C186.89,45.1,186.75,45.19,186.6,45.29Z" transform="translate(-4.6 -28.41)"/><path class="cls-1" d="M178.23,47.13c9.1,11.49,23.27,16.25,37.5,16.89a85.74,85.74,0,0,0,22.48-1.95c6.4-1.43,13.79-3.14,18.75-7.71,1.35-1.25-.13-3-1.62-2.78-6.14.86-12,3.56-18,4.89A96.45,96.45,0,0,1,217,58.91c-13.43.07-27.81-3.1-36.64-13.93-1.24-1.53-3.35.64-2.15,2.15Z" transform="translate(-4.6 -28.41)"/><path class="cls-2" d="M243.91,38.72c3.25-2.39,7.39-2.38,11.28-2.5,5.49-.17,10.82-1.18,16.3-1.37a1.77,1.77,0,0,1,1.64.84,1.76,1.76,0,0,1,.65,1.72c-.75,5.1-2.33,10-3,15.08-.57,4.13-.93,8.71-3.88,11.9-1.36,1.47-3.63.6-4.5-.86a120.85,120.85,0,0,0-7.83-11.21,122.22,122.22,0,0,0-10.26-9C242.9,42.26,242.29,39.9,243.91,38.72Z" transform="translate(-4.6 -28.41)"/></svg>