<svg id="Layer_1" data-name="Layer 1" xmlns="http://www.w3.org/2000/svg" viewBox="0 0 267.77 94.27"><defs><style>.cls-1{fill:#231f20;}.cls-2{fill:none;stroke:#231f20;stroke-miterlimit:10;stroke-width:4px;}</style></defs><title>arrow</title><path d="M86.09,52a1.83,1.83,0,0,0-.08-.43c-.05-.13-.09-.28-.15-.44a6.43,6.43,0,0,1-.23-.77,3.69,3.69,0,0,1-.06-1,1.39,1.39,0,0,1,.19-.42,1.34,1.34,0,0,1,.2-.21c.05-.17.1-.35.16-.52l.46,0a2.84,2.84,0,0,0,.51.05l.51,0q1.19.06,2.43,0c.83,0,1.68,0,2.55-.07s2-.1,3.09-.09l.23-.4.13-.2.35-.15a1.64,1.64,0,0,1,1,.22,1.86,1.86,0,0,1,.4.39L99.42,48l1.75-.12,2.53-.12a20.44,20.44,0,0,1,2.48,0c.35,0,.68.06,1,.1s.6.09.89.15l.35.29a1.66,1.66,0,0,0,.27.4,3.68,3.68,0,0,0,.4.38,5.65,5.65,0,0,1,.83,1,2,2,0,0,1,.18,1.57l-.18.28a2.37,2.37,0,0,1-.33.21l-.34.36-.34,0a2.14,2.14,0,0,0-.46,0,2.54,2.54,0,0,0-.38.11,2,2,0,0,1-.29.08l-.35.08a5.09,5.09,0,0,0-.52-.07l-.43,0a18.89,18.89,0,0,0-2,0c-.72,0-1.43.07-2.11.12l-1.43.07-1.24.06L99,54.14c-.2.38-.4.76-.62,1.14s-.41.76-.61,1.15-.38.82-.56,1.3a8.88,8.88,0,0,0-.69,1,6.25,6.25,0,0,0-.48,1.07,3,3,0,0,0-.73,1c-.16.39-.3.71-.43,1l-.15.43a1.17,1.17,0,0,0-.28.31,1.18,1.18,0,0,1-.19.25,4.51,4.51,0,0,1-.29.72l-.15.3a.38.38,0,0,0,0,.24,1.32,1.32,0,0,1-.22.49,2,2,0,0,1-.06.35c0,.12,0,.23-.08.35a3.79,3.79,0,0,0-.12.36.65.65,0,0,0,0,.31l.17.24a1.18,1.18,0,0,1,.13.3.31.31,0,0,0,.15.1.36.36,0,0,1,.14.1,1,1,0,0,0,.44.26l.28.37a1.92,1.92,0,0,1-.45,1.62,2.28,2.28,0,0,1-1.86.57l-.42-.06a2,2,0,0,1-.23-.27l-.44-.22a.71.71,0,0,1-.31-.29.38.38,0,0,0-.15-.09.22.22,0,0,1-.15-.08,1.58,1.58,0,0,1-.47-.23L89.84,68c0-.19,0-.33.06-.41a2.64,2.64,0,0,1-.34-.72c-.07-.26-.13-.52-.18-.8s-.09-.42-.12-.6a1.68,1.68,0,0,0-.2-.48,9.89,9.89,0,0,1,.62-3.41c.36-.92.76-1.8,1.19-2.66.23-.46.46-.93.68-1.4a15.54,15.54,0,0,0,.59-1.47l.36-.3a2.23,2.23,0,0,1,.3-.19,1.78,1.78,0,0,1,.2-.74c.12-.24.25-.48.4-.73s.18-.3.26-.45a2.06,2.06,0,0,0,.17-.4,2.63,2.63,0,0,0-.39,0l-.35,0a3.52,3.52,0,0,1-.78.05,2.21,2.21,0,0,1-.4-.05,1.51,1.51,0,0,1-.47.11H91l-.37,0-.37,0a1.35,1.35,0,0,0-.6.06l-.55,0-.28,0-.37,0H88.1c-.16,0-.35,0-.55-.07a2.06,2.06,0,0,1-.63-.26l-.2-.24c-.11-.22-.22-.34-.32-.37l-.33-.1Z" transform="translate(-9.76 -2.23)"/><path d="M101.12,66.59l.41-.27.08-.61c.6-1.16,1.21-2.26,1.84-3.32s1.28-2.14,2-3.25c.21-.35.43-.71.66-1.07s.44-.72.66-1.1a1,1,0,0,1,0-.25,1,1,0,0,1,.09-.3,10.35,10.35,0,0,0,.78-1c.2-.3.4-.61.59-.93s.45-.75.7-1.13a7,7,0,0,1,.92-1.08l.24-.27.34.05.27-.08a1.29,1.29,0,0,1,.36,0l.54.13A5.6,5.6,0,0,0,113.48,51a16.36,16.36,0,0,0,1.78-1.88l.42-.46.46.33a1.86,1.86,0,0,0,.48.21l.69.27c.42.13.83.28,1.22.44a2.32,2.32,0,0,1,.91.59l.12.27c0,.22,0,.42,0,.6s0,.35,0,.53c0,.42.07.83.1,1.23a12.28,12.28,0,0,1,0,1.34c.07.4.12.8.17,1.21s.1.8.14,1.2q.08.85.18,1.65a9.32,9.32,0,0,0,.33,1.52.9.9,0,0,1,.37.06,2.6,2.6,0,0,1,.87-.1h.39l.09.36a.8.8,0,0,0,.13.19l.2.2a1.31,1.31,0,0,1,.69.25,2.86,2.86,0,0,1,.35.34l.14.15a.6.6,0,0,0,.14.11l.52.26-.36.52A4.32,4.32,0,0,1,123,63.46a6.49,6.49,0,0,1-1.62.82,1.8,1.8,0,0,1,0,.39,2.17,2.17,0,0,0,0,.41c0,.4.07.81.07,1.23a5.33,5.33,0,0,1-.14,1.3,6.84,6.84,0,0,1-.84,1.29,5.64,5.64,0,0,1-1.07,1,5.22,5.22,0,0,1-1.33.68,3.7,3.7,0,0,1-1.47.21,2,2,0,0,1-.6-.25l-.32-.26a2.34,2.34,0,0,0-.37-.27L115,69.8l.16-.42a.46.46,0,0,0,0-.41,2.49,2.49,0,0,0-.4-.51,1.19,1.19,0,0,1-.19-.2l-.19-.24-.55-.72,1-.18a2.5,2.5,0,0,0,1.27-.5,2,2,0,0,0,.36-1.28,3.2,3.2,0,0,0-1.23-.15l-1,.14c-.48.08-.94.15-1.39.2a7.91,7.91,0,0,1-1.47,0,7.51,7.51,0,0,1-1.08-.17l-.33,0-.06-.33a.21.21,0,0,0-.07-.14l-.12-.14c-.09-.13-.2-.29-.33-.5a.81.81,0,0,1,0-.73,1.38,1.38,0,0,1-.19-.69c-.09.15-.17.29-.24.43s-.12.28-.17.42l-.15.37-.4,0a.32.32,0,0,0-.12.17.19.19,0,0,0,0,.17l.09.33-.33.24a.54.54,0,0,1-.16.14l-.16.1a3.89,3.89,0,0,1-.22.6c-.09.19-.18.38-.28.57s-.24.6-.36.89a3.28,3.28,0,0,0-.21.86l-.15.38a1,1,0,0,1-.41.32,3.15,3.15,0,0,1-.45.17,1.38,1.38,0,0,0-.44.21l-.12.37-.46,0-.57.08h-.38l-.39-.06c-.22-.25-.41-.44-.55-.58a2.82,2.82,0,0,0-.5-.37l-.16-.24a1.39,1.39,0,0,1-.12-.44,3.24,3.24,0,0,0-.06-.4,1.22,1.22,0,0,0-.14-.54Zm10.33-6.92q-.48.55-.93,1.17a2.8,2.8,0,0,1,.41,0h.42c.71,0,1.37,0,2,0s1.28-.06,2-.14c-.09-.73-.2-1.48-.32-2.24s-.26-1.54-.41-2.32l-.18.28c-.56.49-1.1,1-1.63,1.58a14.82,14.82,0,0,0-1.32,1.64Z" transform="translate(-9.76 -2.23)"/><path d="M124.49,65.83l.07-.17s0-.09-.09-.15,0-.23.11-.26l.32-.09a14,14,0,0,1,1-3.13c.41-.93.86-1.84,1.33-2.72l1.43-2.65a19.59,19.59,0,0,0,1.27-2.92,3.62,3.62,0,0,0,.76-.84l.64-1a7.46,7.46,0,0,1,.73-1,2.7,2.7,0,0,1,1.06-.72,3.27,3.27,0,0,1,.5.15l.42.21a4.68,4.68,0,0,0,.45.19,2,2,0,0,0,.51.11,1.49,1.49,0,0,1,.17.36,1.31,1.31,0,0,0,.21.36l.56,0a3.3,3.3,0,0,1,.61.87,3.65,3.65,0,0,1,.31,1,1.86,1.86,0,0,1-.16,1,1.28,1.28,0,0,1-.79.67.5.5,0,0,1,0,.26,1.19,1.19,0,0,1-.09.15.31.31,0,0,0-.07.14.34.34,0,0,0,.1.2,3.1,3.1,0,0,0-.68.59,4.73,4.73,0,0,0-.56.79,7.89,7.89,0,0,0-.39.84,6.24,6.24,0,0,0-.23.8,12.42,12.42,0,0,1,2.26-1.41c.85-.43,1.6-.83,2.24-1.21s1-.51,1.34-.76.78-.46,1.18-.66.81-.4,1.23-.58.86-.38,1.3-.6a.72.72,0,0,1,.48,0,1.49,1.49,0,0,1,.3.18c0-.13,0-.22-.06-.25s-.09-.14-.05-.29a6.25,6.25,0,0,0,1-.24,8.24,8.24,0,0,1,.92-.28c.18.23.35.49.52.75a1.08,1.08,0,0,0,.77.49,1.45,1.45,0,0,0,.37.62,6.14,6.14,0,0,0,.47.42,2,2,0,0,1,.38.48,1.4,1.4,0,0,1,.11.79,6,6,0,0,1-.36.48,3,3,0,0,0-.37.65,13.74,13.74,0,0,1-1.62.94c-.54.27-1.08.51-1.64.75l-1.69.72a18.06,18.06,0,0,0-1.75.89,2.12,2.12,0,0,1-.51.42l-.61.33-.59.33a1.56,1.56,0,0,0-.47.45h-.22l-.21,0a1,1,0,0,1-.4.34.79.79,0,0,0-.36.34,4.12,4.12,0,0,0,1.21,1.87,5.89,5.89,0,0,0,1.86,1.06,11.16,11.16,0,0,0,2.31.56l2.61.33c.1,0,.15-.06.15-.14s.07-.12.18-.09a3.1,3.1,0,0,1,.71.44c.18.16.35.33.51.5s.32.36.47.55.32.37.51.58a3.55,3.55,0,0,1-1.11,2.12,5.56,5.56,0,0,1-2.19,1.14,20.1,20.1,0,0,1-3-.43,10.06,10.06,0,0,1-2.46-.92.33.33,0,0,1-.15-.2.64.64,0,0,0-.11-.22.85.85,0,0,0-.52-.17,1,1,0,0,1-.5-.12,5.75,5.75,0,0,1-.83-.61l-1-.88c-.39-.38-.75-.75-1.11-1.11a6.35,6.35,0,0,1-.91-1.17.29.29,0,0,0-.24-.17.59.59,0,0,1-.31-.12A6.1,6.1,0,0,0,132,67.19c-.54.58-1.07,1.18-1.58,1.78a21.76,21.76,0,0,1-1.6,1.7,4.9,4.9,0,0,1-2,1.15,1.48,1.48,0,0,1-.56-.15,2.24,2.24,0,0,1-.43-.31l-.38-.35a1.26,1.26,0,0,0-.46-.24,1.74,1.74,0,0,0-.09-.79,6.93,6.93,0,0,0-.26-.7,2.82,2.82,0,0,1-.18-.62.66.66,0,0,1,.23-.57,6.06,6.06,0,0,0-.59-.5.5.5,0,0,0,.23-.36.92.92,0,0,0-.07-.36,1.62,1.62,0,0,1-.09-.38.53.53,0,0,1,.15-.41c.08,0,.12,0,.11-.11A.16.16,0,0,1,124.49,65.83Z" transform="translate(-9.76 -2.23)"/><path d="M148.92,72.84a1.31,1.31,0,0,1-.27-.6.91.91,0,0,0-.43-.58q0-.45,0-1l-.06-1.19a9.75,9.75,0,0,1,0-1.21,4.51,4.51,0,0,1,.18-1.09,2.16,2.16,0,0,1,.26-.47l.33-.42a1.88,1.88,0,0,0,.27-.42.82.82,0,0,0,.08-.46.26.26,0,0,0,.25-.17q.06-.15.3-.06c.2-.41.4-.79.61-1.14s.43-.69.65-1l.71-1a9.45,9.45,0,0,0,.69-1.15,2.75,2.75,0,0,1-.6-1.09,5.59,5.59,0,0,1-.2-1.13,10.85,10.85,0,0,1,0-1.14,5.92,5.92,0,0,0-.09-1.18,3.28,3.28,0,0,1,1-.75,5.31,5.31,0,0,1,1.22-.41,9.71,9.71,0,0,1,1.4-.18c.5,0,1-.06,1.59-.11,1-.16,1.92-.28,2.71-.34s1.56-.1,2.31-.11,1.52,0,2.32,0,1.73,0,2.79,0a.11.11,0,0,0,.09.1l.2,0a.32.32,0,0,0,.3.25.86.86,0,0,0,0-.16.53.53,0,0,1,0-.13l.16.05.17.09a.17.17,0,0,0,.14,0c.05,0,.06-.08.06-.18a3.18,3.18,0,0,0,.78,1.13,6.55,6.55,0,0,0,1.17.86,1.93,1.93,0,0,1,0,.38,1,1,0,0,1-.08.21.77.77,0,0,0-.06.23,1.13,1.13,0,0,0,0,.37,4.28,4.28,0,0,1-1.29,1.06,5.29,5.29,0,0,1-1.42.48,8.34,8.34,0,0,1-1.52.14l-1.6,0a15.93,15.93,0,0,0-1.67.15,6.67,6.67,0,0,0-1.7.48,1,1,0,0,0-.43-.13,1.52,1.52,0,0,0-.42,0l-.48,0a1.58,1.58,0,0,1-.62-.08,1.55,1.55,0,0,1-.6.22l-.68.08a1.37,1.37,0,0,1,0,.66,1.52,1.52,0,0,0,0,.56,16.28,16.28,0,0,0,2.81.36c1,.05,2,.12,3,.22a.24.24,0,0,1-.06.19.27.27,0,0,0-.09.2,2.67,2.67,0,0,1,.44.5l.42.58a2.68,2.68,0,0,0,.47.48,1.1,1.1,0,0,0,.61.22,2.27,2.27,0,0,1,.12.63,1.28,1.28,0,0,1-.19.66c-.44.19-.87.4-1.29.61a12.12,12.12,0,0,1-1.29.54,7,7,0,0,1-1.4.35,5.35,5.35,0,0,1-1.59,0l-.25,0a.47.47,0,0,1-.24-.15,1.48,1.48,0,0,1-.81,0,1.7,1.7,0,0,0-.84,0,2.59,2.59,0,0,0-.95-.27,3,3,0,0,1-.95-.27,17.5,17.5,0,0,0-1.24,1.45A11.72,11.72,0,0,0,153,69.24a12,12,0,0,0,2,.4c.54,0,1.06.08,1.54.08l1.5,0a15.09,15.09,0,0,1,1.88.19,6.2,6.2,0,0,1,1.79-.24,11,11,0,0,0,1.86-.15,1.07,1.07,0,0,1,.46.41l.33.55a2.44,2.44,0,0,0,.33.47.66.66,0,0,0,.52.2.64.64,0,0,1,.15.37,2.38,2.38,0,0,0,0,.39.59.59,0,0,0,.09.29c.05.08.15.12.32.12a5.81,5.81,0,0,1-1.52,1.56,5.14,5.14,0,0,1-1.72.73,9.08,9.08,0,0,1-2,.22c-.73,0-1.56,0-2.47.07a1.14,1.14,0,0,1-.55-.09,1.67,1.67,0,0,0-.45-.13q-.86,0-2,0a16.35,16.35,0,0,1-2.32-.17,11,11,0,0,1-2.19-.57A4,4,0,0,1,148.92,72.84Z" transform="translate(-9.76 -2.23)"/><path d="M180.06,69.84a.12.12,0,0,1,.15-.08.35.35,0,0,0,.2,0,1,1,0,0,1-.2-.67,1.19,1.19,0,0,0-.19-.7c.06-.09.11-.18.16-.27s.13-.12.27-.07a3.45,3.45,0,0,1,.23-1.19,4.11,4.11,0,0,1,.55-1A7.63,7.63,0,0,1,182,65l.84-.86c.18,0,.29,0,.32.09s.1.08.22,0a1.89,1.89,0,0,0,.78-.6,2,2,0,0,0,.32-.82c.27-.47.56-.93.88-1.39a8.92,8.92,0,0,1,1-1.24,8.3,8.3,0,0,1,1.16-1,4.08,4.08,0,0,1,1.25-.55,4.47,4.47,0,0,1,1.18-.45,6.85,6.85,0,0,1,1.46-.22,9,9,0,0,1,1.55.08,5.36,5.36,0,0,1,1.42.41c.09.06.15,0,.19,0s.09-.12.18-.1a12.4,12.4,0,0,1,2.57,1,6.07,6.07,0,0,1,1.81,1.48,19.73,19.73,0,0,1,.72,2,11.25,11.25,0,0,1,.4,2.22,8,8,0,0,1-.18,2.28,6.76,6.76,0,0,1-.94,2.21,8.12,8.12,0,0,1-2.9,1.58,18.5,18.5,0,0,1-3.42.71,31.46,31.46,0,0,1-3.67.22c-1.25,0-2.47,0-3.66.11-.07.52-.16,1.07-.28,1.66a12.13,12.13,0,0,1-.5,1.73A10.63,10.63,0,0,1,184,77.3a6.63,6.63,0,0,1-1.11,1.42,4.57,4.57,0,0,0-1.24-.08c-.44,0-.83.07-1.18.11L180,78.4a1.25,1.25,0,0,0-.52-.24.9.9,0,0,0,0-.75c-.13-.28-.25-.55-.38-.82a2,2,0,0,1-.21-.77q0-.37.45-.6a.79.79,0,0,1-.13-.68.41.41,0,0,0,.27.17,3.76,3.76,0,0,1,.34-1.23q.31-.69.57-1.38a4,4,0,0,0,.26-1.29A1.07,1.07,0,0,0,180.06,69.84Zm8.92-5.5c-.12.2-.22.38-.3.53a3.92,3.92,0,0,1-.24.42,3.18,3.18,0,0,1-.27.37l-.3.43a.45.45,0,0,0,.19.3.45.45,0,0,1,.19.3,4.07,4.07,0,0,1,.89-.16,6.21,6.21,0,0,1,.86,0,8.19,8.19,0,0,0,.86,0,3.88,3.88,0,0,0,.92-.14,6.32,6.32,0,0,1,1-.17l1-.1c.33,0,.66-.1,1-.18a2.58,2.58,0,0,0,.87-.36,3.67,3.67,0,0,0-1.13-.89,7.49,7.49,0,0,0-1.74-.67,7.14,7.14,0,0,0-2-.2A3.77,3.77,0,0,0,189,64.34Z" transform="translate(-9.76 -2.23)"/><path d="M197.24,80.12c-.06,0-.09,0-.1-.08a.32.32,0,0,1,0-.17.22.22,0,0,1,.12-.13.17.17,0,0,1,.19,0,2.29,2.29,0,0,1-.33-.92,4.51,4.51,0,0,0-.23-1,.45.45,0,0,0,.17-.23,2.55,2.55,0,0,1,.13-.29.52.52,0,0,1,.16-.19s.11,0,.18.08a1.07,1.07,0,0,1,.1-.52,2.3,2.3,0,0,1,.2-.35A2.59,2.59,0,0,0,198,76a.68.68,0,0,0,0-.42,4.09,4.09,0,0,0,1-1.5,11.12,11.12,0,0,0,.5-1.56,2.25,2.25,0,0,0,.59-.6,4.12,4.12,0,0,0,.46-.85,5.65,5.65,0,0,0,.26-.89,1.75,1.75,0,0,0,0-.72.17.17,0,0,1,.16-.11.65.65,0,0,1,.25.06,20.23,20.23,0,0,0,.78-2.51,23.77,23.77,0,0,1,.83-2.67,7.94,7.94,0,0,1,1.18-2.16,2.47,2.47,0,0,1,1.86-1,5.44,5.44,0,0,0,.3,1.36c.16.41.34.81.54,1.21l.61,1.19a8.32,8.32,0,0,1,.54,1.29c-.11.44-.25.94-.44,1.5s-.39,1.13-.61,1.71L206.19,71c-.22.54-.42,1-.59,1.35a.25.25,0,0,0,.17.23c.11,0,.11.16,0,.34.6,0,1.22,0,1.86,0l1.91,0c.62,0,1.24,0,1.85-.11a9.91,9.91,0,0,0,1.77-.31c.31-.89.64-1.77,1-2.64a8.05,8.05,0,0,0,.62-2.71,1.28,1.28,0,0,0,.37-.29.58.58,0,0,1,.41-.18,4.71,4.71,0,0,1,.15-1.43,4.63,4.63,0,0,1,.54-1.31,3.21,3.21,0,0,1,.9-1,2.12,2.12,0,0,1,1.23-.39,7.75,7.75,0,0,1,.44,1.31c.1.46.21.93.32,1.4a13.1,13.1,0,0,0,.37,1.34,3.45,3.45,0,0,0,.67,1.16c-.09.68-.19,1.37-.3,2.08s-.23,1.43-.37,2.18c-.36.82-.74,1.62-1.14,2.39a15.62,15.62,0,0,0-1,2.49,2.2,2.2,0,0,0-.51.54c-.15.22-.29.44-.43.66a7.33,7.33,0,0,1-.45.64,2,2,0,0,1-.56.49,1.63,1.63,0,0,1-.12.77,1.33,1.33,0,0,0,0,.88,3.14,3.14,0,0,1-.53,1.44,3,3,0,0,1-1,.85,4,4,0,0,1-1.24.44c-.45.08-.89.15-1.33.2a5.07,5.07,0,0,1-.46-.47,1.8,1.8,0,0,0-.55-.39l.2-.23a7.8,7.8,0,0,1-.76-1.42,2.54,2.54,0,0,1-.1-1.55s.05-.15.14-.38.18-.48.29-.74.2-.5.3-.73l.15-.37a8.25,8.25,0,0,0-1.78,0c-.62.08-1.24.19-1.84.32a17.43,17.43,0,0,0-1.7.45l-1.29.43a2.2,2.2,0,0,1-.24.46q-.22.38-.51.78a4.89,4.89,0,0,1-.61.71c-.21.2-.4.28-.57.22a.74.74,0,0,0,.08.24q0,.09-.06.27a4.51,4.51,0,0,0-1,.21,4.59,4.59,0,0,1-.88.24,2.16,2.16,0,0,1-.91,0,2.61,2.61,0,0,1-1.09-.57.49.49,0,0,0-.11-.39,3.39,3.39,0,0,0-.31-.34c-.12-.1-.22-.18-.3-.26S197.23,80.18,197.24,80.12Z" transform="translate(-9.76 -2.23)"/><path d="M224.32,86.6a5.72,5.72,0,0,1-4-1.89A6.5,6.5,0,0,1,219.24,83a8.69,8.69,0,0,1-.6-2,9.34,9.34,0,0,1,.9-3.51,11,11,0,0,1,1.83-2.69,17.74,17.74,0,0,1,2.35-2.15l2.46-1.84a.37.37,0,0,0,.34.07,1,1,0,0,0,.28-.18l.3-.24a.78.78,0,0,1,.36-.13,1.13,1.13,0,0,1,.4-.36,3.71,3.71,0,0,1,.49-.24l.48-.24a1.83,1.83,0,0,0,.44-.36,1.43,1.43,0,0,0,.56-.09,4.31,4.31,0,0,0,.49-.22,2.92,2.92,0,0,1,.47-.23,1.53,1.53,0,0,1,.55-.12l.08-.37a2.81,2.81,0,0,0,1.09-.42c.25-.19.56-.43.92-.73A3.86,3.86,0,0,1,234,67a4.34,4.34,0,0,0,.62.08,2.83,2.83,0,0,1,.67-.6,4.75,4.75,0,0,1,.8-.37,2.62,2.62,0,0,0,.88.49,1.48,1.48,0,0,1,.81.64,1,1,0,0,0,.08.58,3.11,3.11,0,0,0,.31.43q.16.19.33.42a.8.8,0,0,1,.15.54.24.24,0,0,0,.21,0s.1,0,.19,0,0,.29,0,.39a1.23,1.23,0,0,0,.08.29,2,2,0,0,1,.08.29,2,2,0,0,1,.05.37c-.15.21-.3.43-.44.67a.78.78,0,0,1-.59.42c0,.15,0,.25.12.28a.23.23,0,0,1,.15.26.59.59,0,0,1-.19.41,25.11,25.11,0,0,1,.83,3.15,24.86,24.86,0,0,0,.85,3.16,2,2,0,0,0-.14.8,4.45,4.45,0,0,0,.08.81c.05.27.09.54.13.81a4.21,4.21,0,0,1,0,.79,4.7,4.7,0,0,1-.24,1,5.32,5.32,0,0,1-.49,1,4.35,4.35,0,0,1-.69.85,2.07,2.07,0,0,1-.82.51,3.81,3.81,0,0,1-1.37.67,6.64,6.64,0,0,0-1.47.55,3.24,3.24,0,0,1-.94.13h-1a5.75,5.75,0,0,1-1,.24,11.14,11.14,0,0,1-1.16.15,11.3,11.3,0,0,1-1.16,0,3.18,3.18,0,0,1-1-.18,11.15,11.15,0,0,1-2.14.08A7,7,0,0,1,224.32,86.6ZM227,76.26a6.35,6.35,0,0,1-1,1l-1,.91a6.89,6.89,0,0,0-.91,1,4,4,0,0,0-.62,1.38,2.72,2.72,0,0,0,1.26.88,7.75,7.75,0,0,0,1.63.38c.58.07,1.15.12,1.74.15a9.38,9.38,0,0,1,1.54.19c0-.17.13-.24.29-.21a6.14,6.14,0,0,0,2.42-.17c.78-.21,1.59-.43,2.44-.64a1.9,1.9,0,0,1,.51-.51,1.26,1.26,0,0,0,.44-.69,1.65,1.65,0,0,1-.09-.47,2,2,0,0,1,.07-.52,13.17,13.17,0,0,1-.79-2.54,15.94,15.94,0,0,0-.75-2.58,1.07,1.07,0,0,1-.3.23c-.14.07-.27,0-.37-.14a.64.64,0,0,1-.36.32.81.81,0,0,1-.41,0,1.33,1.33,0,0,1-.42-.19,1.5,1.5,0,0,1-.35-.31c-.8.38-1.6.75-2.38,1.09a10.45,10.45,0,0,0-2.23,1.35c-.11,0-.17,0-.18,0S227.12,76.24,227,76.26Z" transform="translate(-9.76 -2.23)"/><path d="M242.37,73.57a2.12,2.12,0,0,0,0-.44c0-.13,0-.28-.06-.45a6.56,6.56,0,0,1-.08-.8,3.14,3.14,0,0,1,.11-1,1.31,1.31,0,0,1,.24-.38,2.21,2.21,0,0,1,.23-.17l.24-.49.45.11.47.14.49.11c.74.18,1.51.33,2.31.46l2.46.37c.92.1,1.91.25,3,.45l.3-.36.15-.17.36-.09a1.58,1.58,0,0,1,.9.39,1.89,1.89,0,0,1,.32.45c.52.09,1,.16,1.59.23l1.7.19,2.44.32a19.13,19.13,0,0,1,2.37.45l.93.27c.29.09.56.19.83.3l.28.35a1.54,1.54,0,0,0,.19.44,4.83,4.83,0,0,0,.32.45,5.7,5.7,0,0,1,.63,1.07,2.07,2.07,0,0,1-.1,1.58l-.23.25a2.44,2.44,0,0,1-.35.15l-.39.29L264.1,78a1.83,1.83,0,0,0-.44-.07l-.39,0a1.2,1.2,0,0,1-.28,0l-.35,0-.48-.16-.41-.1a17.73,17.73,0,0,0-1.92-.37c-.7-.1-1.38-.18-2-.25l-1.38-.18-1.2-.16c-.32.45-.61.84-.86,1.18s-.51.68-.78,1-.53.68-.79,1-.5.75-.76,1.19a9.27,9.27,0,0,0-.83.83,5.73,5.73,0,0,0-.64,1,3,3,0,0,0-.88.9c-.22.35-.41.64-.58.88l-.22.4a1.24,1.24,0,0,0-.32.25.91.91,0,0,1-.22.22,4.88,4.88,0,0,1-.41.66l-.19.27a.45.45,0,0,0-.09.23,1.2,1.2,0,0,1-.29.44,1.93,1.93,0,0,1-.11.34c-.05.11-.1.22-.14.33l-.18.33a.55.55,0,0,0,0,.31c0,.09.08.18.11.27a.94.94,0,0,1,.08.32.68.68,0,0,0,.12.12.34.34,0,0,1,.12.12.88.88,0,0,0,.38.33l.2.41a1.92,1.92,0,0,1-.71,1.52,2.13,2.13,0,0,1-1.87.24l-.4-.13a1.77,1.77,0,0,1-.17-.31l-.38-.29a.74.74,0,0,1-.25-.35.27.27,0,0,0-.13-.1.25.25,0,0,1-.12-.11,1.41,1.41,0,0,1-.41-.31l-.28-.24c.07-.19.11-.32.13-.39a2.65,2.65,0,0,1-.2-.77c0-.27,0-.54,0-.82s0-.43,0-.61a1.45,1.45,0,0,0-.11-.51,10.61,10.61,0,0,1,1.19-3.26c.51-.83,1-1.63,1.6-2.4.3-.41.6-.83.89-1.27a15,15,0,0,0,.82-1.34c.14-.07.27-.15.4-.23l.31-.14a2,2,0,0,1,.33-.69c.15-.21.32-.43.5-.65l.33-.4a1.56,1.56,0,0,0,.23-.37l-.37-.07-.34,0a3,3,0,0,1-.75-.09,1.43,1.43,0,0,1-.37-.12,1.35,1.35,0,0,1-.48,0l-.41-.09-.35-.08-.35-.08a1.5,1.5,0,0,0-.57,0l-.53-.12-.26-.07-.35-.08-.35-.08a3.47,3.47,0,0,1-.52-.17,2.05,2.05,0,0,1-.56-.35l-.15-.28q-.09-.36-.24-.42l-.3-.16Z" transform="translate(-9.76 -2.23)"/><path d="M261.66,95.49a5.68,5.68,0,0,1-2.24-.71,5.57,5.57,0,0,1-1.61-1.35,6.49,6.49,0,0,1-1-1.78,8.62,8.62,0,0,1-.5-2,9.49,9.49,0,0,1,1.05-3.47,11.49,11.49,0,0,1,1.93-2.6,17.48,17.48,0,0,1,2.44-2l2.52-1.74a.37.37,0,0,0,.33.09,1,1,0,0,0,.29-.17l.31-.22a.77.77,0,0,1,.36-.12,1.27,1.27,0,0,1,.42-.35c.15-.08.32-.15.49-.22a3.61,3.61,0,0,0,.49-.21,1.78,1.78,0,0,0,.45-.34,1.66,1.66,0,0,0,.56-.06,3.75,3.75,0,0,0,.5-.21,2.76,2.76,0,0,1,.47-.2,1.87,1.87,0,0,1,.56-.1l.1-.37a2.72,2.72,0,0,0,1.1-.37c.26-.17.57-.41.94-.69a4.22,4.22,0,0,1,.51.11,5,5,0,0,0,.62.1,3.1,3.1,0,0,1,.69-.57,4.17,4.17,0,0,1,.81-.33,2.41,2.41,0,0,0,.85.52,1.52,1.52,0,0,1,.78.69.82.82,0,0,0,.05.57,3.4,3.4,0,0,0,.28.45l.32.43a.84.84,0,0,1,.12.55c.1,0,.17,0,.2,0s.11,0,.2,0,0,.3,0,.4a1.24,1.24,0,0,0,.06.29,2.46,2.46,0,0,1,.07.29,2.11,2.11,0,0,1,0,.38c-.16.2-.32.41-.47.64a.8.8,0,0,1-.61.4c0,.15,0,.25.11.29a.21.21,0,0,1,.14.26.62.62,0,0,1-.21.4,25.8,25.8,0,0,1,.68,3.19,25.85,25.85,0,0,0,.7,3.19,1.93,1.93,0,0,0-.17.79,5.7,5.7,0,0,0,0,.82q.06.4.09.81a3.46,3.46,0,0,1,0,.79,4.87,4.87,0,0,1-.29,1,4.68,4.68,0,0,1-.53,1,4.37,4.37,0,0,1-.72.82,2.12,2.12,0,0,1-.84.48,3.63,3.63,0,0,1-1.39.6,7.34,7.34,0,0,0-1.48.49,3,3,0,0,1-.94.09l-1,0a7.35,7.35,0,0,1-1,.2c-.38,0-.76.08-1.15.09a8.77,8.77,0,0,1-1.15,0,3,3,0,0,1-1-.22,10,10,0,0,1-2.12,0A6.51,6.51,0,0,1,261.66,95.49Zm3.11-10.21a5.86,5.86,0,0,1-1,1l-1,.86a7.35,7.35,0,0,0-.95,1,4.07,4.07,0,0,0-.68,1.35,2.71,2.71,0,0,0,1.21.94,8.11,8.11,0,0,0,1.61.45c.56.1,1.13.17,1.71.23a8.6,8.6,0,0,1,1.52.25c0-.17.15-.23.3-.19a5.92,5.92,0,0,0,2.41-.07c.78-.18,1.6-.35,2.45-.53a2.05,2.05,0,0,1,.53-.49,1.19,1.19,0,0,0,.46-.66,1.94,1.94,0,0,1-.06-.48,1.9,1.9,0,0,1,.1-.52,12.61,12.61,0,0,1-.68-2.57,16,16,0,0,0-.63-2.61.88.88,0,0,1-.31.22c-.14.06-.26,0-.36-.16a.65.65,0,0,1-.36.31.86.86,0,0,1-.42,0,1.2,1.2,0,0,1-.41-.2,1.26,1.26,0,0,1-.32-.33c-.82.35-1.63.68-2.42,1a10.51,10.51,0,0,0-2.27,1.25c-.11,0-.17,0-.19,0S264.9,85.27,264.77,85.28Z" transform="translate(-9.76 -2.23)"/><path class="cls-1" d="M107.29,41C101,27.8,88.21,20,74.5,16.25a85.61,85.61,0,0,0-22.34-3.06c-6.55,0-14.25,0-20.08,3.39a1.67,1.67,0,0,0,.84,3.09c6,.5,12-.8,18-.81a96.57,96.57,0,0,1,21,2C85,23.78,98.43,30,104.67,42.5c.87,1.76,3.46.22,2.62-1.53Z" transform="translate(-9.76 -2.23)"/><path class="cls-2" d="M41.34,34.73c-3.7,1.62-7.73.71-11.55,0-5.4-1-10.82-1.22-16.21-2.24a1.78,1.78,0,0,1-1.42-1.17,1.78,1.78,0,0,1-.25-1.83c1.85-4.81,4.46-9.21,6.27-14,1.46-3.9,2.82-8.3,6.39-10.77,1.65-1.13,3.68.21,4.21,1.84A123,123,0,0,0,34,19.14a122,122,0,0,0,8,11.05C43.1,31.5,43.17,33.93,41.34,34.73Z" transform="translate(-9.76 -2.23)"/></svg>