<svg id="Layer_1" data-name="Layer 1" xmlns="http://www.w3.org/2000/svg" viewBox="0 0 265.02 59.09"><defs><style>.cls-1{fill:#231f20;}.cls-2{fill:none;stroke:#231f20;stroke-miterlimit:10;stroke-width:4px;}</style></defs><title>backarrow</title><path d="M50.69,46.28a.41.41,0,0,1,.24.27,1,1,0,0,1,0,.32l-.62,1c-.12.19-.2.33-.25.42a.91.91,0,0,1-.16.24l-.41.43A25.3,25.3,0,0,1,47,50.7a12,12,0,0,1-2.8,1.19,1.43,1.43,0,0,1-.83.56l-1.19.39A.21.21,0,0,1,42,52.7c0-.07-.06-.11-.15-.14,0,.19-.07.31-.22.33a1.33,1.33,0,0,1-.58,0,5.16,5.16,0,0,1-.75-.26l-.67-.32-.25.51a.9.9,0,0,1-.35.37l-.5,0a.36.36,0,0,0-.29.16,1.07,1.07,0,0,1-.3-.17l-.23-.19a1.4,1.4,0,0,0-.26-.16,1.16,1.16,0,0,0-.38-.1c0-.08,0-.2-.11-.36a.54.54,0,0,0-.39-.26c.06-.14,0-.31-.17-.49a2.53,2.53,0,0,1-.42-.64c0-.22,0-.46,0-.71a.4.4,0,0,1,.29-.48,1.21,1.21,0,0,0-.13-.34L36,49.1a.88.88,0,0,0,.23-.46,3,3,0,0,0,.08-.52c0-.18.05-.36.08-.54a.93.93,0,0,1,.27-.48c.1-.6.18-1.05.25-1.35A5.21,5.21,0,0,0,37,44.9c0-.28,0-.58.07-.9a8.34,8.34,0,0,1,.21-1.21,2,2,0,0,1,0-.78c.05-.23.1-.46.16-.7a5.4,5.4,0,0,0,.13-.72,2,2,0,0,0-.13-.86.77.77,0,0,0-.56.35,1.41,1.41,0,0,0-.15.69.77.77,0,0,1-.55.29,1.76,1.76,0,0,0-.6.15,4.55,4.55,0,0,1-1.86-.94,6.06,6.06,0,0,1-1.32-1.63,2.81,2.81,0,0,1,.65-1.23,5.5,5.5,0,0,1,1.11-.91,8.54,8.54,0,0,1,1.39-.68L37,35.27q1.13-.35,2.25-.75A8.74,8.74,0,0,1,41.73,34a1,1,0,0,1,.41-.16l.52-.08.52-.07a1,1,0,0,0,.42-.16.65.65,0,0,0,.45.17,1.58,1.58,0,0,1,.65.21c.21-.21.41-.27.59-.19a2.62,2.62,0,0,1,.5.26l.44.28a.63.63,0,0,0,.41.09,2.94,2.94,0,0,0,.58.44c.23.13.44.27.65.41a2.51,2.51,0,0,1,.54.48,1.22,1.22,0,0,1,.27.65c0,.1,0,.15.11.16a.32.32,0,0,1,.19.1,3.44,3.44,0,0,1-.1,1.59,6.24,6.24,0,0,1-.63,1.3,10.73,10.73,0,0,1-.88,1.16,8.48,8.48,0,0,0-.86,1.16,3.31,3.31,0,0,0,.75.59l.85.49a9.61,9.61,0,0,1,.82.53,2.63,2.63,0,0,1,.68.69.48.48,0,0,0,.16.08l.18.08a5.33,5.33,0,0,0,.31.57c.12.2.22.38.32.56a2.2,2.2,0,0,1,.18.48A.38.38,0,0,1,50.69,46.28Zm-6.33-9.11a11.75,11.75,0,0,0-3,.63A8.21,8.21,0,0,0,39,39a10.06,10.06,0,0,0,1.11.6,2.21,2.21,0,0,1,.92.77A8.37,8.37,0,0,0,42.93,39,11.74,11.74,0,0,0,44.36,37.17Zm1.49,9.23a1,1,0,0,1,.27-.5l.43-.39a2,2,0,0,0,.37-.4.7.7,0,0,0,.09-.55,5.31,5.31,0,0,0-1.8-.4,5.67,5.67,0,0,0-1.46.18,8.18,8.18,0,0,0-1.29.47,9.71,9.71,0,0,1-1.24.45c-.15.58-.3,1.22-.45,1.91s-.3,1.36-.43,2a8.41,8.41,0,0,0,1.56-.56c.47-.22.92-.46,1.35-.71s.86-.5,1.28-.76S45.39,46.64,45.85,46.4Z" transform="translate(-1.87 -26.14)"/><path d="M67.57,46.81a4.87,4.87,0,0,1-.42,1.06,4.27,4.27,0,0,1-.7,1,4.07,4.07,0,0,1-.94.76,3.06,3.06,0,0,1-1.14.41,1.33,1.33,0,0,1-.53-.14l-.3-.16-.17-.08-.14-.06-.37-.11.08-.39a.49.49,0,0,0-.06-.36,1.81,1.81,0,0,0-.39-.33l-.2-.16a1.21,1.21,0,0,1-.16-.16l-.56-.5.77-.29a1.8,1.8,0,0,0,.93-.62,1.63,1.63,0,0,0,.08-1.1,2.53,2.53,0,0,0-1,.07c-.26.09-.52.18-.78.29s-.69.25-1,.36a7.58,7.58,0,0,1-1.17.23l-.45,0h-.44l-.3,0a.86.86,0,0,0-.16-.35l-.13-.09a2,2,0,0,1-.35-.36.8.8,0,0,1-.14-.61,1.44,1.44,0,0,1-.23-.51,3.39,3.39,0,0,0-.19.76l-.08.3-.29.09s-.06.07-.07.14a.59.59,0,0,0,0,.17l-.09.51-.1.11a.43.43,0,0,0-.11.12,5.07,5.07,0,0,1-.09.54l-.12.51a7.64,7.64,0,0,0-.17.77,1.93,1.93,0,0,0,0,.72l-.08.34a1.48,1.48,0,0,1-.3.31l-.33.23a.4.4,0,0,1-.14.11l-.16.1,0,.33-.34.09L54,51a1.13,1.13,0,0,1-.3.06h-.3c-.23-.15-.41-.27-.54-.37a3.65,3.65,0,0,0-.44-.26,1.42,1.42,0,0,1-.36-.49c0-.11-.06-.22-.09-.31a2.24,2.24,0,0,1-.11-.28.25.25,0,0,0-.09-.17l-.42-.31.29-.3,0-.49c.27-1,.58-2,.92-3l1-3c.12-.32.24-.65.35-1s.23-.65.36-1a.59.59,0,0,1,0-.2.66.66,0,0,1,0-.27,10.34,10.34,0,0,0,.43-.95L55,37.9c.12-.35.24-.69.38-1a6.75,6.75,0,0,1,.53-1l.45-.25.2-.1a.71.71,0,0,1,.26-.07h.45a4.34,4.34,0,0,0,1.34-1.22,14.56,14.56,0,0,0,1.11-1.78L60,32l.41.2a2.4,2.4,0,0,0,.43.11l.59.11c.36,0,.71.09,1,.15a2,2,0,0,1,.82.36,3.91,3.91,0,0,1,.28.68,4,4,0,0,0,.14.46c.09.32.18.65.26,1s.16.69.22,1.1.24.64.35,1,.2.63.29,1,.29.9.43,1.32a7.21,7.21,0,0,0,.51,1.2h.3a2.09,2.09,0,0,1,.3-.11l.36-.1L67,40.3l.15.28c0,.1.14.18.32.26a1.13,1.13,0,0,1,.58.11c.12.07.24.16.35.24a1,1,0,0,0,.25.16l.46.13-.19.46A4,4,0,0,1,68.22,43a5.68,5.68,0,0,1-1.14.92c0,.11,0,.22.07.33a1.82,1.82,0,0,0,.11.33c.09.32.17.66.25,1a4.83,4.83,0,0,1,.1,1.08Zm-9-4.17,1.59-.3c.47-.1,1-.24,1.58-.41-.2-.57-.41-1.16-.64-1.78s-.45-1.22-.69-1.83l-.15.31a12.84,12.84,0,0,0-1,1.49,15.91,15.91,0,0,0-.78,1.53l-.3.56c-.1.19-.19.37-.27.56l.34-.07A1.55,1.55,0,0,0,58.56,42.64Z" transform="translate(-1.87 -26.14)"/><path d="M81.92,48a9,9,0,0,1-1.16.07,2.49,2.49,0,0,0-1.25.31,20.32,20.32,0,0,1-3.2-.1,23.3,23.3,0,0,1-3-.51c-.21-.2-.43-.38-.64-.55a1.79,1.79,0,0,0-.83-.32,4.41,4.41,0,0,1-1.27-1.24,8.3,8.3,0,0,1-.87-1.64,9.5,9.5,0,0,1-.53-1.82,13.38,13.38,0,0,1-.24-1.82,6.66,6.66,0,0,1,1-2.38c.48-.68,1-1.36,1.49-2a2,2,0,0,0,.54-.42,4.68,4.68,0,0,1,.39-.38l.41-.37a1.68,1.68,0,0,0,.36-.43,3.68,3.68,0,0,0,1.05-.52c.29-.21.57-.43.85-.66s.57-.45.87-.66a4.33,4.33,0,0,1,1.06-.5,2,2,0,0,1,.53-.48l.64-.37c.22-.13.43-.26.63-.4a1.23,1.23,0,0,0,.45-.51.35.35,0,0,0,.43.13c.17-.07.34-.13.49-.21a.33.33,0,0,1,.26,0l.21.16a.4.4,0,0,0,.17.09s.09,0,.12-.14.14,0,.11.13-.06.17-.08.22a.51.51,0,0,1,.41.06,1,1,0,0,0,.54.12c.09.09.11.16.08.21a.4.4,0,0,0,0,.26,1.59,1.59,0,0,1,1.2.74,1.65,1.65,0,0,1,.13,1.18,3,3,0,0,1-.65,1.2,2.66,2.66,0,0,1-1.1.79c-.92.34-1.79.69-2.61,1.06a5.11,5.11,0,0,0-1.94,1.51,4.9,4.9,0,0,0-1.2.66,7.12,7.12,0,0,0-1,.85,10.55,10.55,0,0,0-.83,1c-.26.33-.54.65-.82,1a.93.93,0,0,1-.08.64c-.09.15-.18.32-.26.48a2.55,2.55,0,0,0,.28.75,5,5,0,0,0,.38.63,18.52,18.52,0,0,0,4.2.35c1.47,0,2.94-.1,4.41-.2a3.16,3.16,0,0,0,.53.5,5.23,5.23,0,0,1,.56.48,2.73,2.73,0,0,1,.43.58,1.43,1.43,0,0,1,.13.83,7,7,0,0,1-.84.88Z" transform="translate(-1.87 -26.14)"/><path d="M102.76,45.35a17,17,0,0,1-2.49.1A7,7,0,0,1,98.13,45S98.05,45,98,44.9a.43.43,0,0,0-.13-.16.84.84,0,0,0-.43-.05,1,1,0,0,1-.43,0c-.16-.07-.41-.2-.76-.4l-1-.56c-.37-.25-.73-.5-1.06-.75a5.81,5.81,0,0,1-.89-.82.33.33,0,0,0-.25-.11.86.86,0,0,1-.27,0,5,5,0,0,0-1.34,1.42c-.35.56-.68,1.12-1,1.69s-.65,1.12-1,1.64A3.73,3.73,0,0,1,88.08,48a1,1,0,0,1-.47-.05,1.84,1.84,0,0,1-.4-.19l-.37-.22a1.9,1.9,0,0,0-.4-.14,1.64,1.64,0,0,0-.18-.63L86,46.19a2.16,2.16,0,0,1-.23-.49.54.54,0,0,1,.07-.49,2.4,2.4,0,0,0-.56-.34.42.42,0,0,0,.14-.33,1,1,0,0,0-.1-.29c0-.09-.09-.2-.13-.31a.42.42,0,0,1,0-.36,1.5,1.5,0,0,0,.35-.09c-.13-.14-.2-.23-.19-.26s0-.07-.08-.13,0-.18,0-.22l.23-.12a12.23,12.23,0,0,1,.28-2.7c.19-.84.41-1.65.67-2.43l.75-2.38a16.55,16.55,0,0,0,.55-2.58,2.45,2.45,0,0,0,.47-.8c.1-.3.22-.6.34-.9a7.49,7.49,0,0,1,.44-.9,2,2,0,0,1,.74-.75,1.73,1.73,0,0,1,.76.16,1.45,1.45,0,0,0,.82.1c.06.09.13.19.18.28a1.42,1.42,0,0,0,.22.28L92.2,30a2.79,2.79,0,0,1,.63.61,2.36,2.36,0,0,1,.4.81,1.85,1.85,0,0,1,0,.84,1.07,1.07,0,0,1-.52.66,1.22,1.22,0,0,1,0,.22.57.57,0,0,1,0,.14.5.5,0,0,0,0,.12.54.54,0,0,0,.1.17A2.57,2.57,0,0,0,92,34.88a4.7,4.7,0,0,0-.23,1.43,8.69,8.69,0,0,1,.74-.75c.27-.24.55-.49.84-.72l.84-.68c.28-.22.53-.43.75-.64A12.11,12.11,0,0,1,96.76,32c.57-.41,1.19-.85,1.83-1.35a.74.74,0,0,1,.37,0l.29.09c0-.12,0-.19-.12-.2s-.1-.09-.09-.23a4.21,4.21,0,0,0,.76-.33q.32-.18.69-.36l.55.51a1,1,0,0,0,.67.3,1.36,1.36,0,0,0,.39.45l.44.29a1.48,1.48,0,0,1,.39.32,1.15,1.15,0,0,1,.24.63c-.07.14-.15.3-.22.46a3.09,3.09,0,0,0-.22.57,12.92,12.92,0,0,1-1.14,1c-.39.3-.78.59-1.18.87s-.81.57-1.23.85a11.76,11.76,0,0,0-1.27,1,1.76,1.76,0,0,1-.34.39l-.44.35a5,5,0,0,0-.42.37,1.13,1.13,0,0,0-.29.43.58.58,0,0,1-.18,0l-.17,0a.68.68,0,0,1-.26.34.57.57,0,0,0-.23.34,3.5,3.5,0,0,0,1.25,1.35,4.88,4.88,0,0,0,1.65.61,8.08,8.08,0,0,0,1.93.1l2.15-.12c.08,0,.11-.07.1-.14s0-.1.13-.08a2.47,2.47,0,0,1,1.13.58,6.6,6.6,0,0,0,1,.78,3.06,3.06,0,0,1-.56,1.88A4.46,4.46,0,0,1,102.76,45.35Z" transform="translate(-1.87 -26.14)"/><path d="M131.84,30.81a14.1,14.1,0,0,0-1.6.17l-1.69.28c-.39.08-.77.14-1.14.2l-1,.13c-.12.43-.25.82-.37,1.15s-.26.67-.4,1a9.88,9.88,0,0,0-.39,1c-.11.35-.22.72-.32,1.11a6.77,6.77,0,0,0-.45.89,4,4,0,0,0-.27.9,3.35,3.35,0,0,0-.5,1c-.1.33-.17.61-.22.84l-.11.36a.81.81,0,0,0-.19.29.41.41,0,0,1-.14.2,1.63,1.63,0,0,1-.18.65,1.64,1.64,0,0,0-.07.28.8.8,0,0,0,0,.19.42.42,0,0,1-.13.39.8.8,0,0,1,0,.31c0,.1,0,.21,0,.31a1.64,1.64,0,0,0,0,.56c.07.07.12.14.18.19a.55.55,0,0,1,.11.23,1.16,1.16,0,0,0,.27.14l.36.19.28.28a1.55,1.55,0,0,1-.2,1.35,1.79,1.79,0,0,1-1.47.63l-.36,0a.72.72,0,0,1-.18-.23l-.39-.13a.62.62,0,0,1-.28-.22l-.63-.26L120,45c0-.21,0-.33,0-.35a1.81,1.81,0,0,1-.33-.57,5.1,5.1,0,0,1-.2-.63,4.7,4.7,0,0,0-.16-.49,1.17,1.17,0,0,0-.21-.4,8.44,8.44,0,0,1,.19-2.89c.21-.79.44-1.56.68-2.29l.42-1.21a10.66,10.66,0,0,0,.35-1.26l.26-.31.3-.79c.08-.21.16-.42.25-.64s.1-.27.15-.4.08-.25.12-.35l-.33,0-.3.06-.32.06c-.1,0-.2,0-.3,0a.79.79,0,0,1-.29,0,1.69,1.69,0,0,1-.71.18l-.3,0H119a1,1,0,0,0-.47.12l-.68,0h-.3l-.15,0-.15,0a2.26,2.26,0,0,1-.44,0,1.66,1.66,0,0,1-.52-.17,1.6,1.6,0,0,0-.5-.47l-.29-.34a2.07,2.07,0,0,0-.1-.33,3.42,3.42,0,0,1-.14-.36c-.09-.19-.18-.39-.26-.61a2.92,2.92,0,0,1-.15-.8.92.92,0,0,1,.1-.36,1.52,1.52,0,0,0,.14-.21l.07-.45h.39l.83,0c.64,0,1.28-.09,1.94-.17l2-.26,1.2-.18,1.27-.17q.11-.27.21-.51l.3-.16a1.25,1.25,0,0,1,.76.1,2.82,2.82,0,0,1,.39.29l1.32-.19c.45-.07.9-.15,1.35-.25.68-.12,1.36-.24,2-.34a18,18,0,0,1,2-.2q.42,0,.81,0a5.17,5.17,0,0,1,.72.07l.31.19a1,1,0,0,0,.27.31c.11.1.23.19.35.28a5.74,5.74,0,0,1,.74.74,1.69,1.69,0,0,1,.32,1.28,1.26,1.26,0,0,1-.35.42l-.25.36-.3,0a1.14,1.14,0,0,0-.33.06l-.29.11-.24.11a1.34,1.34,0,0,1-.26.08h-.78Z" transform="translate(-1.87 -26.14)"/><path d="M146.1,35.69a1.87,1.87,0,0,0,.07.67,6.62,6.62,0,0,0,.24.62l.27.63a4.71,4.71,0,0,1,.19.64,3.27,3.27,0,0,1,0,.89,4.24,4.24,0,0,1-.19.94,3.47,3.47,0,0,1-.36.83,1.48,1.48,0,0,1-.55.56,2.73,2.73,0,0,1-1,.84,6.12,6.12,0,0,0-1.07.73,2.18,2.18,0,0,1-.71.32l-.81.19c-.21.13-.46.25-.75.39s-.6.26-.91.38a6.46,6.46,0,0,1-.93.26,3.58,3.58,0,0,1-.82.07,8.15,8.15,0,0,1-1.71.48,6.32,6.32,0,0,1-2-.07,5,5,0,0,1-2,0,4.39,4.39,0,0,1-1.61-.69,5.37,5.37,0,0,1-1.25-1.18,6.83,6.83,0,0,1-.9-1.47,7.77,7.77,0,0,1,0-3,9.89,9.89,0,0,1,.93-2.56,13.35,13.35,0,0,1,1.44-2.19l1.6-2a.3.3,0,0,0,.28,0,.67.67,0,0,0,.18-.22,2.35,2.35,0,0,1,.19-.25.51.51,0,0,1,.25-.16,1.49,1.49,0,0,1,.58-.68,1.56,1.56,0,0,0,.62-.65,1.19,1.19,0,0,0,.44-.19,2.88,2.88,0,0,0,.34-.27c.1-.1.22-.2.33-.29A1.44,1.44,0,0,1,137,29v-.32a2.15,2.15,0,0,0,.78-.56c.16-.22.36-.47.59-.77a4.28,4.28,0,0,1,.43,0,3.67,3.67,0,0,0,.49-.08,3.89,3.89,0,0,1,.41-.62,3,3,0,0,1,.57-.46,2.62,2.62,0,0,0,.8.21,1.34,1.34,0,0,1,.78.36.72.72,0,0,0,.19.45,2.3,2.3,0,0,0,.34.28l.35.27a.75.75,0,0,1,.23.41c.08,0,.14,0,.17,0s.08,0,.16,0a1.42,1.42,0,0,0,.22.54,1.31,1.31,0,0,1,.26.5,2.32,2.32,0,0,0-.21.61.69.69,0,0,1-.36.46c0,.14,0,.21.12.22a.2.2,0,0,1,.19.15.46.46,0,0,1-.08.39,20.31,20.31,0,0,1,1.34,2.38A19.09,19.09,0,0,0,146.1,35.69Zm-3.63,2.87a1.58,1.58,0,0,1,.29-.53.94.94,0,0,0,.21-.62,1.59,1.59,0,0,1-.19-.36,3,3,0,0,1,0-.43,11,11,0,0,1-1.18-1.92,14.33,14.33,0,0,0-1.13-1.91.71.71,0,0,1-.2.24c-.1.08-.21.06-.33-.05a.51.51,0,0,1-.2.34.46.46,0,0,1-.32.1,1.3,1.3,0,0,1-.37-.08,1.06,1.06,0,0,1-.35-.18q-.84.71-1.68,1.38a8.42,8.42,0,0,0-1.5,1.54c-.07,0-.12.06-.14.05s-.08,0-.18,0a4.59,4.59,0,0,1-.54,1c-.22.31-.43.62-.63.94a5.48,5.48,0,0,0-.53,1,3.19,3.19,0,0,0-.22,1.24,2.25,2.25,0,0,0,1.2.45,6.56,6.56,0,0,0,1.4,0q.72-.09,1.41-.24a7,7,0,0,1,1.28-.17,8.51,8.51,0,0,0,2.1-.84C141.21,39.26,141.82,38.91,142.47,38.56Z" transform="translate(-1.87 -26.14)"/><path d="M171.5,44.23a9.54,9.54,0,0,1-1.17,0,2.62,2.62,0,0,0-1.28.2,19.77,19.77,0,0,1-3.18-.37,22.1,22.1,0,0,1-3-.77c-.2-.21-.4-.41-.6-.59a1.59,1.59,0,0,0-.8-.39,4.57,4.57,0,0,1-1.16-1.35,8.38,8.38,0,0,1-.73-1.71,9.64,9.64,0,0,1-.38-1.85,14.47,14.47,0,0,1-.08-1.83,6.73,6.73,0,0,1,1.24-2.29c.54-.64,1.09-1.27,1.66-1.9a2,2,0,0,0,.58-.38,4.71,4.71,0,0,1,.41-.35l.44-.33a1.64,1.64,0,0,0,.4-.39,4,4,0,0,0,1.09-.44c.31-.18.61-.38.91-.59s.6-.4.92-.57a4.34,4.34,0,0,1,1.1-.42,1.83,1.83,0,0,1,.57-.42l.67-.33a6.82,6.82,0,0,0,.66-.34,1.23,1.23,0,0,0,.49-.47.36.36,0,0,0,.42.17l.51-.17a.33.33,0,0,1,.26.06l.19.18a.32.32,0,0,0,.16.1s.1,0,.14-.13.13.05.09.15l-.09.2a.54.54,0,0,1,.4.1,1,1,0,0,0,.53.17c.08.09.1.17.06.22a.37.37,0,0,0-.06.24,1.48,1.48,0,0,1,1.16,2,2.9,2.9,0,0,1-.75,1.14,2.72,2.72,0,0,1-1.16.7c-1,.25-1.85.53-2.69.84a4.93,4.93,0,0,0-2.07,1.34,5.56,5.56,0,0,0-1.26.54,8.63,8.63,0,0,0-1,.77c-.33.29-.63.58-.92.89s-.58.6-.9.9a.93.93,0,0,1-.12.63c-.11.14-.21.3-.31.45a2.86,2.86,0,0,0,.21.78c.1.22.21.44.33.65a18.45,18.45,0,0,0,4.16.71c1.47.1,2.94.15,4.42.17a3.17,3.17,0,0,0,.49.55,5,5,0,0,1,.51.52,2.49,2.49,0,0,1,.39.62,1.49,1.49,0,0,1,0,.83,6.42,6.42,0,0,1-.91.81Z" transform="translate(-1.87 -26.14)"/><path d="M190.36,41.89a5.18,5.18,0,0,1-.54,1,4.56,4.56,0,0,1-.81.89,4.34,4.34,0,0,1-1,.64,3,3,0,0,1-1.18.28,1.43,1.43,0,0,1-.51-.2l-.28-.19-.16-.11-.13-.07-.35-.15.12-.38a.5.5,0,0,0,0-.37,2.63,2.63,0,0,0-.35-.37l-.18-.18a1.1,1.1,0,0,1-.14-.18c-.17-.18-.33-.37-.5-.56l.8-.19a1.89,1.89,0,0,0,1-.52,1.59,1.59,0,0,0,.21-1.08,2.48,2.48,0,0,0-1,0c-.26,0-.53.12-.81.19s-.72.17-1.08.24a7.51,7.51,0,0,1-1.2.09l-.44,0-.44,0-.3-.06a1,1,0,0,0-.11-.37l-.12-.1a2.43,2.43,0,0,1-.31-.4.78.78,0,0,1-.07-.63,1.37,1.37,0,0,1-.17-.53,3.39,3.39,0,0,0-.27.73l-.13.29-.29.06a.19.19,0,0,0-.09.13.61.61,0,0,0,0,.16l-.15.5-.12.1-.12.1a5.26,5.26,0,0,1-.15.53c-.06.17-.12.34-.18.49s-.19.51-.26.75a2.21,2.21,0,0,0-.08.72l-.12.32a1.19,1.19,0,0,1-.32.28l-.36.18a.5.5,0,0,1-.16.11.84.84,0,0,0-.16.07l-.09.32-.35.06-.46.08a1.42,1.42,0,0,1-.31,0l-.29,0c-.22-.18-.39-.32-.5-.43a3.38,3.38,0,0,0-.41-.31,1.46,1.46,0,0,1-.3-.52q0-.18-.06-.33a1.33,1.33,0,0,1-.07-.29.3.3,0,0,0-.07-.18L174,42l.32-.26,0-.5c.4-1,.82-2,1.27-2.87s.91-1.85,1.39-2.8c.16-.31.31-.63.46-.94s.31-.62.47-.93a.66.66,0,0,1,0-.21.69.69,0,0,1,.06-.26c.22-.33.4-.63.54-.89l.42-.8c.16-.33.33-.66.5-1a7.08,7.08,0,0,1,.65-1l.48-.2.21-.07a.77.77,0,0,1,.27,0l.44.06a4.65,4.65,0,0,0,1.48-1,16.71,16.71,0,0,0,1.3-1.65l.3-.4.39.24a1.76,1.76,0,0,0,.42.16l.56.17c.36.09.7.18,1,.28a1.83,1.83,0,0,1,.77.45,4.06,4.06,0,0,1,.2.71,4.2,4.2,0,0,0,.08.47c.06.33.11.66.15,1a8.91,8.91,0,0,1,.09,1.11q.14.49.24,1l.18,1c.09.47.18.93.27,1.37a7.91,7.91,0,0,0,.37,1.25.88.88,0,0,1,.3,0l.31-.08.37,0,.33,0,.11.29c0,.1.12.2.29.3a1,1,0,0,1,.56.17,2.26,2.26,0,0,1,.32.29,1.25,1.25,0,0,0,.24.18l.44.18-.24.43a4.19,4.19,0,0,1-.87,1,5.1,5.1,0,0,1-1.24.78c0,.12,0,.23,0,.34a1.47,1.47,0,0,0,.07.34c.05.33.09.67.13,1a5.6,5.6,0,0,1,0,1.08Zm-8.49-5.19q.9,0,1.62-.12c.49,0,1-.12,1.62-.22-.13-.59-.27-1.21-.42-1.84s-.32-1.27-.49-1.9l-.18.29a12.28,12.28,0,0,0-1.16,1.37,16.73,16.73,0,0,0-1,1.42l-.36.53c-.12.17-.23.35-.33.52l.34,0A1.06,1.06,0,0,0,181.87,36.7Z" transform="translate(-1.87 -26.14)"/><path d="M212.65,44.45l-.55.25a1.34,1.34,0,0,1-.58.09,3.53,3.53,0,0,1-1.08-3,18.14,18.14,0,0,1,1.1-5.32.39.39,0,0,0,.16-.35l-.26-.3a.53.53,0,0,0-.22,0,.27.27,0,0,0-.17.2c-.53.35-1.11.71-1.74,1.09a20.13,20.13,0,0,1-1.95,1,13.3,13.3,0,0,1-2,.77,6.77,6.77,0,0,1-2,.26,4,4,0,0,1-3.66-2.6l-.23-.44-.25.37a3.67,3.67,0,0,0-.27.48c-.13.24-.25.51-.38.82s-.24.63-.34.95a2.68,2.68,0,0,0-.12.83c-.18.17-.37.37-.58.6A2.55,2.55,0,0,0,197,41a.56.56,0,0,0,0,.44.62.62,0,0,1-.28.4,3.33,3.33,0,0,1-.25.28,1.18,1.18,0,0,0-.23.27,1,1,0,0,0-.08.29,2.5,2.5,0,0,1,0,.29,1.43,1.43,0,0,1-.07.38,6,6,0,0,1-.83,1.32,1.07,1.07,0,0,1-.8.29,6.14,6.14,0,0,1-.76-.11,4,4,0,0,1-.67-1.14,7.52,7.52,0,0,1-.44-1.55,7.69,7.69,0,0,1-.12-1.66,3.92,3.92,0,0,1,.31-1.44s.09-.21.25-.58l.64-1.42c.26-.58.55-1.23.88-1.93l1-2.06c.33-.67.65-1.28,1-1.84a11.66,11.66,0,0,1,.76-1.27c.17-.23.32-.45.45-.65l.39-.59a11.21,11.21,0,0,1,1.07-1.48,3.35,3.35,0,0,1,1.47-.92,2.48,2.48,0,0,1,.94.64l.06.33c.07.2.19.3.35.3l.55.18a4.19,4.19,0,0,0,.49.14,3.5,3.5,0,0,1,.37.57l.44.7a3.15,3.15,0,0,1,.34.69,2.1,2.1,0,0,1,.13.69,1.79,1.79,0,0,1-.16.73l0,.29a1.05,1.05,0,0,1,0,.74,2.72,2.72,0,0,0,0,.42,2.93,2.93,0,0,0,0,.49,1.71,1.71,0,0,0,.94.44,1.79,1.79,0,0,0,.89-.2c.27-.13.53-.28.77-.42a5.4,5.4,0,0,1,.49-.3,1.25,1.25,0,0,1,.48-.14l1-.85c.3-.24.61-.48.94-.72.61-.45,1.2-.94,1.78-1.46a6.18,6.18,0,0,0,1.42-2,1.23,1.23,0,0,1,.64-.15,1.75,1.75,0,0,1,.68.17l.68.32.16.1.13.06a.66.66,0,0,0,.22.51l.15.12a.28.28,0,0,0,.08.06,1.23,1.23,0,0,1,.55.49,1.82,1.82,0,0,0,.71,1.06,1.1,1.1,0,0,0,0,.54,3.93,3.93,0,0,0,.17.52,1.21,1.21,0,0,1,.05.18,1.65,1.65,0,0,0,.09.21l-.57-.08.07.56a2.26,2.26,0,0,1-.11.9,3.2,3.2,0,0,1-.35.78c0,.51,0,.9,0,1.19a3.84,3.84,0,0,1-.07.78,6.27,6.27,0,0,1-.19.69,6.74,6.74,0,0,1-.32.69,8.57,8.57,0,0,1-.56,3.39c-.41,1-.83,1.95-1.26,2.84,0,.09-.09.19-.14.28l-.15.29a4.24,4.24,0,0,0-.47.17Z" transform="translate(-1.87 -26.14)"/><path d="M234.2,29.52a1.56,1.56,0,0,1,0,.31c0,.07,0,.13,0,.19l0,.19a1.52,1.52,0,0,0,0,.31,3.32,3.32,0,0,1-1.52,1.27,7,7,0,0,1-1.8.43l-2,.23a5.77,5.77,0,0,0-2,.66.83.83,0,0,0-.7,0,1.75,1.75,0,0,1-.91,0,1.05,1.05,0,0,1-.46.23l-.54.13a1.15,1.15,0,0,1,.07.55.84.84,0,0,0,.06.46,13.06,13.06,0,0,0,2.3.08c.85,0,1.68,0,2.49,0,0,.1,0,.16,0,.19s-.05.08,0,.16a2.76,2.76,0,0,1,.39.38,5.82,5.82,0,0,0,.4.45,1.93,1.93,0,0,0,.41.36.78.78,0,0,0,.51.13,1.82,1.82,0,0,1,.14.52,1.06,1.06,0,0,1-.11.57l-1,.61a9.14,9.14,0,0,1-1,.54,5.88,5.88,0,0,1-1.12.37,4.18,4.18,0,0,1-1.29.06h-.23a.37.37,0,0,1-.18-.1,1,1,0,0,1-.67.06,1,1,0,0,0-.68,0,1.65,1.65,0,0,0-.77-.17,2.44,2.44,0,0,1-.81-.14,9.86,9.86,0,0,0-.93,1.27,11.8,11.8,0,0,0-.75,1.46,9.08,9.08,0,0,0,1.67.2c.44,0,.86,0,1.26,0l1.22-.09a12.64,12.64,0,0,1,1.57,0,4,4,0,0,1,1.42-.35,7.78,7.78,0,0,0,1.52-.25.87.87,0,0,1,.39.33l.32.43a2.72,2.72,0,0,0,.32.35.55.55,0,0,0,.44.14.8.8,0,0,1,.15.29c0,.11,0,.21.05.31a1,1,0,0,0,.09.26.23.23,0,0,0,.25.08,4.4,4.4,0,0,1-1.1,1.42,3.91,3.91,0,0,1-1.36.7,9.63,9.63,0,0,1-1.65.33q-.91.09-2,.24a.69.69,0,0,1-.44,0,1.24,1.24,0,0,0-.41-.09,15.27,15.27,0,0,1-1.63.18,12.31,12.31,0,0,1-1.92,0,8.33,8.33,0,0,1-1.84-.34,2.93,2.93,0,0,1-1.41-.84,1,1,0,0,1-.29-.49.67.67,0,0,0-.38-.45c0-.25,0-.54-.08-.85s-.09-.64-.14-1-.07-.68-.09-1a3.23,3.23,0,0,1,.09-.91,1.73,1.73,0,0,1,.4-.77.91.91,0,0,0,.23-.76.18.18,0,0,0,.18-.15q0-.13.24-.09c.14-.35.28-.67.43-1s.31-.6.47-.89.33-.57.49-.87.32-.63.47-1a2.58,2.58,0,0,1-.57-.86,5.43,5.43,0,0,1-.24-.92c-.05-.31-.08-.62-.11-1a6,6,0,0,0-.16-1A2.47,2.47,0,0,1,220,30a4.55,4.55,0,0,1,1-.41,8.82,8.82,0,0,1,1.12-.24l1.27-.2a20.81,20.81,0,0,1,2.16-.48c.64-.11,1.26-.19,1.88-.24s1.25-.11,1.91-.15,1.42-.12,2.27-.23a.72.72,0,0,0,.49.29c.09-.17.19-.22.29-.14s.16,0,.15-.16a2.78,2.78,0,0,0,.71.88A5.3,5.3,0,0,0,234.2,29.52Z" transform="translate(-1.87 -26.14)"/><path d="M237.17,43.17a15.56,15.56,0,0,1-.68,1.74,5.49,5.49,0,0,1-.83,1.19.62.62,0,0,0-.53.06,2.62,2.62,0,0,1-.34.24.63.63,0,0,1-.38,0,1.15,1.15,0,0,1-.2-.14,1,1,0,0,0-.22-.16.73.73,0,0,0-.39-.1c0-.16-.06-.31-.1-.45s-.18-.19-.39-.17a1.16,1.16,0,0,0,0-.39,1.33,1.33,0,0,0-.06-.3l-.06-.26a.93.93,0,0,1,.05-.34c-.1,0-.17-.08-.22-.22a3.79,3.79,0,0,0-.18-.42c.07-.35.15-.67.23-1a8.93,8.93,0,0,1,.27-.87,6.28,6.28,0,0,0,.27-.8,1.42,1.42,0,0,0,0-.86q.12.11.18,0a1.2,1.2,0,0,0,.11-.35,3.18,3.18,0,0,0,.06-.43c0-.15,0-.27,0-.37a13.54,13.54,0,0,0,.58-1.54c.16-.52.31-1.05.45-1.57s.28-1,.43-1.53a7.4,7.4,0,0,1,.56-1.37,1.5,1.5,0,0,1,.73.11c.26.11.42.23.47.37a6.55,6.55,0,0,0,1.46-1.33c.43-.53.87-1.05,1.32-1.55A9.08,9.08,0,0,1,241.24,29a3.6,3.6,0,0,1,2-.61c.38.32.81.65,1.27,1a3.83,3.83,0,0,1,1.14,1.26,2,2,0,0,1,.38.28c.11.09.23.2.39.31l0,.35a2.57,2.57,0,0,1,.53.78,8,8,0,0,1,.34.94c.1.33.19.66.29,1a7.7,7.7,0,0,0,.35.95.64.64,0,0,0-.07.24.57.57,0,0,0,0,.22,1.05,1.05,0,0,1,.06.24.73.73,0,0,1,0,.32,3.22,3.22,0,0,1-1,2A6.3,6.3,0,0,1,245,39.47a14.86,14.86,0,0,1-2.34.71,20.48,20.48,0,0,0-2.24.61c0,.08,0,.12.1.13s.09,0,.06.15l1.08.77a5.68,5.68,0,0,0,.76.49,4.2,4.2,0,0,0,.77.36c.28.11.67.24,1.18.39l1.17.36.77.23a6.25,6.25,0,0,0,.72.17l1,.18a2.73,2.73,0,0,1,.41.66,2.32,2.32,0,0,1,.2.75,3.22,3.22,0,0,1,0,.7.94.94,0,0,1-.25.53.11.11,0,0,0,.13.08l.22,0a1.18,1.18,0,0,0-.32.27c-.08.12-.17.23-.26.34a1.48,1.48,0,0,1-.28.28.71.71,0,0,1-.43.14,4,4,0,0,1-2.29-.12,26.53,26.53,0,0,1-3.43-1.37c-.69-.32-1.25-.59-1.68-.83a9.79,9.79,0,0,1-1.11-.69,6.55,6.55,0,0,1-.84-.71Zm4.88-9.75a6.56,6.56,0,0,1-.78.8c-.29.23-.56.47-.83.72a6.4,6.4,0,0,0-.72.83,3.35,3.35,0,0,0-.49,1.1,8.05,8.05,0,0,0,2.21-.43l2.19-.72a2.46,2.46,0,0,0-.54-1.5A2.54,2.54,0,0,0,242.05,33.42Z" transform="translate(-1.87 -26.14)"/><path d="M264.34,45.8a4.66,4.66,0,0,1-.61,1,4.33,4.33,0,0,1-.87.84,4.74,4.74,0,0,1-1.07.56,3.09,3.09,0,0,1-1.2.2,1.35,1.35,0,0,1-.5-.24l-.27-.21-.15-.12-.13-.08-.34-.17.15-.37a.47.47,0,0,0,0-.37,2.35,2.35,0,0,0-.32-.4c0-.06-.11-.12-.16-.19a.68.68,0,0,1-.13-.18l-.46-.6.81-.14a1.8,1.8,0,0,0,1-.44,1.61,1.61,0,0,0,.29-1.07,2.62,2.62,0,0,0-1-.11c-.27,0-.55.08-.83.14s-.73.12-1.1.16a6.81,6.81,0,0,1-1.2,0l-.44,0-.44-.08-.29-.09a1,1,0,0,0-.09-.37.57.57,0,0,1-.11-.11,2.54,2.54,0,0,1-.28-.42.75.75,0,0,1,0-.63,1.42,1.42,0,0,1-.13-.54,3.06,3.06,0,0,0-.33.71l-.14.28-.3,0a.24.24,0,0,0-.1.13.73.73,0,0,0,0,.16l-.19.48a.47.47,0,0,1-.12.09l-.13.1a5.17,5.17,0,0,1-.18.51l-.22.49a7.44,7.44,0,0,0-.31.72,2,2,0,0,0-.13.71l-.14.31a1.34,1.34,0,0,1-.34.26l-.37.16a.39.39,0,0,1-.17.09l-.17.06-.11.31-.36,0-.46.05h-.31l-.29-.06c-.21-.19-.36-.34-.47-.46a3.37,3.37,0,0,0-.39-.33,1.48,1.48,0,0,1-.26-.55q0-.18,0-.33a1.36,1.36,0,0,1-.06-.29.24.24,0,0,0-.06-.18l-.36-.38.35-.24.06-.5c.47-1,1-1.89,1.47-2.77l1.58-2.7c.19-.3.36-.6.53-.9l.53-.9a.7.7,0,0,1,0-.21.83.83,0,0,1,.08-.26,9.85,9.85,0,0,0,.6-.85c.16-.25.32-.5.48-.77s.37-.62.56-.92a8,8,0,0,1,.72-.92l.49-.16.22-.06a.78.78,0,0,1,.27,0l.44.09a4.36,4.36,0,0,0,1.55-.95,15.76,15.76,0,0,0,1.42-1.54l.33-.39.37.27a1.77,1.77,0,0,0,.41.19l.55.21c.35.11.68.23,1,.35a1.9,1.9,0,0,1,.74.5,3.83,3.83,0,0,1,.15.72,2.61,2.61,0,0,0,.05.48c0,.33.05.67.08,1s0,.71,0,1.12.12.67.17,1,.07.66.11,1l.18,1.38a7.34,7.34,0,0,0,.28,1.27.85.85,0,0,1,.29.06,1.65,1.65,0,0,1,.32-.06l.38,0H265l.1.3c0,.1.1.21.27.32a1.09,1.09,0,0,1,.55.21,2.91,2.91,0,0,1,.3.31.93.93,0,0,0,.22.19l.43.22-.28.42a3.9,3.9,0,0,1-.93.93,5.06,5.06,0,0,1-1.3.69c0,.12,0,.23,0,.34a1.37,1.37,0,0,0,0,.34c0,.34.05.68.06,1a5,5,0,0,1-.09,1.08ZM256.21,40h1.63c.49,0,1-.05,1.64-.12q-.14-.88-.3-1.86c-.11-.64-.22-1.28-.35-1.92l-.2.27a13.9,13.9,0,0,0-1.26,1.28c-.4.48-.75.93-1.05,1.36l-.39.5a4.29,4.29,0,0,0-.37.5h.65Z" transform="translate(-1.87 -26.14)"/><path class="cls-1" d="M97.3,63.06C88.47,73.89,74.08,77.06,60.66,77a96.37,96.37,0,0,1-20.3-2.44c-6.06-1.33-11.89-4-18-4.89-1.48-.2-3,1.53-1.61,2.78,4.82,4.44,11.91,6.14,18.13,7.57A85.84,85.84,0,0,0,62,82.1c14.22-.64,28.4-5.4,37.5-16.89,1.19-1.51-.91-3.68-2.15-2.15Z" transform="translate(-1.87 -26.14)"/><path class="cls-2" d="M33.77,56.8c-3.26-2.39-7.39-2.38-11.28-2.5C17,54.13,11.67,53.12,6.18,52.93a1.74,1.74,0,0,0-1.63.84,1.74,1.74,0,0,0-.65,1.72c.75,5.1,2.33,10,3,15.08.57,4.12.93,8.71,3.88,11.9,1.35,1.47,3.63.6,4.5-.87a122.06,122.06,0,0,1,7.83-11.2,120.45,120.45,0,0,1,10.26-9C34.77,60.34,35.38,58,33.77,56.8Z" transform="translate(-1.87 -26.14)"/></svg>